<?xml version="1.0" encoding="UTF-8" standalone="no"?>
<svg
   width="600"
   zoomAndPan="magnify"
   viewBox="0 0 500 281.25"
   height="337.5"
   preserveAspectRatio="xMidYMid"
   version="1.0"
   id="svg1544"
   sodipodi:docname="B-Invt_EAA-S3.svg"
   inkscape:version="1.2.2 (732a01da63, 2022-12-09)"
   inkscape:export-filename="4Invt_EAA-S3.svg"
   inkscape:export-xdpi="16.148148"
   inkscape:export-ydpi="16.148148"
   xmlns:inkscape="http://www.inkscape.org/namespaces/inkscape"
   xmlns:sodipodi="http://sodipodi.sourceforge.net/DTD/sodipodi-0.dtd"
   xmlns:xlink="http://www.w3.org/1999/xlink"
   xmlns="http://www.w3.org/2000/svg"
   xmlns:svg="http://www.w3.org/2000/svg">
  <sodipodi:namedview
     id="namedview1546"
     pagecolor="#ffffff"
     bordercolor="#000000"
     borderopacity="0.25"
     inkscape:showpageshadow="2"
     inkscape:pageopacity="0.0"
     inkscape:pagecheckerboard="0"
     inkscape:deskcolor="#d1d1d1"
     showgrid="false"
     inkscape:zoom="0.71851852"
     inkscape:cx="552.52577"
     inkscape:cy="281.13402"
     inkscape:window-width="1898"
     inkscape:window-height="952"
     inkscape:window-x="34"
     inkscape:window-y="36"
     inkscape:window-maximized="1"
     inkscape:current-layer="svg1544" />
  <defs
     id="defs834">
    <g
       id="g775" />
    <clipPath
       id="77c82463c6">
      <path
         d="m 159.19141,0 h 241.5 v 180.21484 h -241.5 z m 0,0"
         clip-rule="nonzero"
         id="path777" />
    </clipPath>
    <clipPath
       id="03199c84f4">
      <path
         d="m 1096,611.09375 h 295.3164 V 810 H 1096 Z m 0,0"
         clip-rule="nonzero"
         id="path780" />
    </clipPath>
    <clipPath
       id="a499241ae8">
      <path
         d="m 1096,611.09375 h 295 V 810 h -295 z m 0,0"
         clip-rule="nonzero"
         id="path783" />
    </clipPath>
    <clipPath
       id="5691818108">
      <path
         d="m 530.37891,0 h 369.75 v 242.46484 h -369.75 z m 0,0"
         clip-rule="nonzero"
         id="path786" />
    </clipPath>
    <clipPath
       id="db0cf7ac34">
      <path
         d="m 235,308.87109 h 977 v 168 H 235 Z m 0,0"
         clip-rule="nonzero"
         id="path789" />
    </clipPath>
    <clipPath
       id="600942e565">
      <path
         d="M 0,532.17578 H 529 V 759 H 0 Z m 0,0"
         clip-rule="nonzero"
         id="path792" />
    </clipPath>
    <clipPath
       id="f6f1f558a1">
      <path
         d="m 1020,43.839844 h 420 V 231 h -420 z m 0,0"
         clip-rule="nonzero"
         id="path795" />
    </clipPath>
    <clipPath
       id="23518146ce">
      <path
         d="m 0,233.1875 h 150.75391 v 235.5 H 0 Z m 0,0"
         clip-rule="nonzero"
         id="path798" />
    </clipPath>
    <clipPath
       id="319cef8654">
      <path
         d="M 1243.6953,271.41016 H 1440 v 235.5 h -196.3047 z m 0,0"
         clip-rule="nonzero"
         id="path801" />
    </clipPath>
    <clipPath
       id="25a8711752">
      <path
         d="m 586.8125,593.28906 h 369.75 V 810 h -369.75 z m 0,0"
         clip-rule="nonzero"
         id="path804" />
    </clipPath>
    <clipPath
       id="3f1b0df195">
      <path
         d="M 878.71094,405 H 1124.7578 V 593.15625 H 878.71094 Z m 0,0"
         clip-rule="nonzero"
         id="path807" />
    </clipPath>
    <clipPath
       id="fa36191acd">
      <path
         d="m 1288.4141,744.92969 h 70.5 v 50.25 h -70.5 z m 0,0"
         clip-rule="nonzero"
         id="path810" />
    </clipPath>
    <clipPath
       id="8c7385ac8e">
      <path
         d="m 3.0625,232.76953 h 51.269531 v 75.75 H 3.0625 Z m 0,0"
         clip-rule="nonzero"
         id="path813" />
    </clipPath>
    <clipPath
       id="07ed81965e">
      <path
         d="m 81,323.80078 h 51.26562 v 75.75 H 81 Z m 0,0"
         clip-rule="nonzero"
         id="path816" />
    </clipPath>
    <clipPath
       id="11a01b2c08">
      <path
         d="m 280.02734,15.535156 h 108.75 v 84.480474 h -108.75 z m 0,0"
         clip-rule="nonzero"
         id="path819" />
    </clipPath>
    <clipPath
       id="086a5c8e91">
      <path
         d="M 368.33984,536.75781 H 503 V 593 H 368.33984 Z m 0,0"
         clip-rule="nonzero"
         id="path822" />
    </clipPath>
    <clipPath
       id="7da01e43d5">
      <path
         d="M 368.33984,559 H 371 v 8 h -2.66016 z m 0,0"
         clip-rule="nonzero"
         id="path825" />
    </clipPath>
    <clipPath
       id="a2e442b57e">
      <path
         d="M 368.33984,552 H 375 v 6 h -6.66016 z m 0,0"
         clip-rule="nonzero"
         id="path828" />
    </clipPath>
    <clipPath
       id="06a2bbb4a6">
      <path
         d="m 1096,100.17969 h 175.3164 V 176 H 1096 Z m 0,0"
         clip-rule="nonzero"
         id="path831" />
    </clipPath>
  </defs>
  <rect
     x="-49.688721"
     width="599.88898"
     fill="#ffffff"
     y="-28.656565"
     height="338.58795"
     fill-opacity="1"
     id="rect836"
     style="stroke-width:0.347748" />
  <rect
     x="-49.688721"
     width="599.88898"
     fill="#ffffff"
     y="-28.656565"
     height="338.58795"
     fill-opacity="1"
     id="rect838"
     style="stroke-width:0.347748" />
  <rect
     x="-49.688721"
     width="599.88898"
     fill="#ffd93b"
     y="-28.656565"
     height="338.58795"
     fill-opacity="1"
     id="rect840"
     style="stroke-width:0.347748" />
  <g
     clip-path="url(#77c82463c6)"
     id="g846"
     transform="matrix(0.347158,0,0,0.34834149,0.30202937,-0.4409021)">
    <path
       fill="#ff4417"
       d="m 280.04687,-52.441406 c -0.0273,-0.191406 -0.0625,-0.394532 -0.10156,-0.59375 -8.82031,1.066406 -17.75781,1.558594 -26.44531,3.289062 -29.40625,5.851563 -54.3125,19.71875 -72.87891,43.589844 -18.84375,24.238281 -25.35156,51.628906 -18.5625,81.730469 4.65625,20.632812 15.57032,37.769531 31.14844,51.921871 2.19531,1.9961 2.48438,3.77344 1.71094,6.41797 -3.07813,10.42188 -9.3711,18.64453 -17.26563,25.81641 -4.64843,4.21875 -9.53515,8.20703 -14.0039,12.60937 -3.61328,3.56641 -3.02344,5.13672 1.79297,6.33985 10.94921,2.72265 21.82421,1.41015 32.62109,-0.82813 18.85937,-3.89062 36.64453,-10.91015 54.09375,-18.875 1.41016,-0.65234 3.24219,-0.97265 4.75781,-0.71875 17.30469,2.86328 34.56641,2.66016 51.67578,-1.15234 30.3125,-6.76172 55.53907,-21.72656 73.71485,-47.30859 15.29687,-21.519536 21.07422,-45.582036 16.72656,-71.667974 -4.38672,-26.21875 -18.09375,-47.089844 -38.76563,-63.40625 -23.47265,-18.503906 -50.53125,-26.839844 -80.21875,-27.164062 z m 0,0"
       fill-opacity="1"
       fill-rule="nonzero"
       id="path842" />
    <path
       fill="#ff4417"
       d="m 399.01562,38.140625 c 4.36329,26.082031 -1.41406,50.152344 -16.72656,71.667965 -18.17187,25.56641 -43.39844,40.54297 -73.6914,47.29688 -17.10547,3.8125 -34.37891,4.02734 -51.67579,1.16797 -1.52734,-0.26953 -3.35156,0.0586 -4.76953,0.71093 -17.43359,7.98047 -35.22265,14.97657 -54.10156,18.8711 -10.78906,2.23437 -21.66016,3.5664 -32.60937,0.84375 -4.82422,-1.22656 -5.39454,-2.77735 -1.80079,-6.34375 4.46875,-4.41016 9.34375,-8.38672 14.00391,-12.60547 7.90234,-7.19141 14.19531,-15.41406 17.27344,-25.8125 0.76172,-2.66797 0.48828,-4.4375 -1.71875,-6.42578 C 177.61719,113.35156 166.71875,96.226562 162.0625,75.585938 155.27734,45.46875 161.78906,18.074219 180.61328,-6.15625 c 18.58203,-23.855469 43.48047,-37.742188 72.875,-43.570312 8.69141,-1.742188 17.625,-2.230469 26.45313,-3.292969 0.0547,0.191406 0.082,0.378906 0.10546,0.570312 29.69532,0.328125 56.7461,8.6875 80.23047,27.175781 20.65235,16.304688 34.35547,37.191407 38.73828,63.414063 z m 0,0"
       fill-opacity="1"
       fill-rule="nonzero"
       id="path844" />
  </g>
  <g
     clip-path="url(#03199c84f4)"
     id="g850"
     transform="matrix(0.347158,0,0,0.34834149,0.30202937,-0.4409021)">
    <path
       fill="#ff89f0"
       d="m 1243.6992,611.82031 c -0.039,-0.23437 -0.082,-0.48437 -0.1289,-0.72656 -10.789,1.30859 -21.7265,1.91016 -32.3594,4.03125 -35.9804,7.16797 -66.4531,24.15625 -89.1679,53.40234 -23.0586,29.69141 -31.0196,63.2461 -22.7149,100.125 5.6992,25.27735 19.0508,46.26953 38.1133,63.60938 2.6875,2.4414 3.0391,4.62109 2.0899,7.86328 -3.7618,12.76562 -11.4649,22.83594 -21.1211,31.625 -5.6914,5.16797 -11.668,10.05469 -17.1329,15.44531 -4.4257,4.3711 -3.7031,6.29688 2.1915,7.76953 13.3945,3.33594 26.7031,1.72657 39.914,-1.01562 23.0742,-4.76953 44.836,-13.36328 66.1875,-23.125 1.7266,-0.79688 3.9649,-1.19141 5.8203,-0.87891 21.1758,3.50781 42.293,3.26172 63.2305,-1.41015 37.0898,-8.28516 67.957,-26.61719 90.1953,-57.96094 18.7188,-26.36328 25.7852,-55.83594 20.4649,-87.79297 -5.3672,-32.12109 -22.1368,-57.69531 -47.4297,-77.68359 -28.7227,-22.66407 -61.8282,-32.875 -98.1524,-33.27735 z m 0,0"
       fill-opacity="1"
       fill-rule="nonzero"
       id="path848" />
  </g>
  <g
     clip-path="url(#a499241ae8)"
     id="g854"
     transform="matrix(0.347158,0,0,0.34834149,0.30202937,-0.4409021)">
    <path
       fill="#ff89f0"
       d="m 1389.2656,722.78906 c 5.336,31.95703 -1.7343,61.44531 -20.4687,87.80078 -22.2305,31.32422 -53.0977,49.66797 -90.1641,57.94141 -20.9336,4.67187 -42.0664,4.93359 -63.2344,1.4375 -1.8671,-0.33594 -4.1015,0.0664 -5.832,0.86719 -21.3359,9.77734 -43.1016,18.34765 -66.1992,23.11718 -13.2031,2.73829 -26.5,4.3711 -39.9024,1.03516 -5.8984,-1.5 -6.5976,-3.40234 -2.1992,-7.77344 5.4649,-5.40234 11.4336,-10.27343 17.1328,-15.4414 9.668,-8.8086 17.3672,-18.88282 21.1329,-31.6211 0.9335,-3.26953 0.6015,-5.4375 -2.0977,-7.875 -19.0664,-17.34375 -32.4023,-38.32812 -38.1016,-63.61328 -8.3007,-36.89453 -0.332,-70.45312 22.6993,-100.14062 22.7343,-29.22266 53.1992,-46.23438 89.1679,-53.375 10.6328,-2.13282 21.5664,-2.73438 32.3672,-4.03516 0.07,0.23438 0.098,0.46875 0.1328,0.69922 36.3321,0.40234 69.4336,10.64453 98.1641,33.29297 25.2734,19.97656 42.039,45.5625 47.4023,77.68359 z m 0,0"
       fill-opacity="1"
       fill-rule="nonzero"
       id="path852" />
  </g>
  <g
     clip-path="url(#5691818108)"
     id="g858"
     transform="matrix(0.347158,0,0,0.34834149,0.30202937,-0.4409021)">
    <path
       fill="#00abff"
       d="m 720.12891,-41.492188 c -104.79297,0 -189.75,63.554688 -189.75,141.953128 0,35.76172 17.6875,68.42968 46.86328,93.39062 -14.39453,15.10938 -27.76172,32.50781 -35.53125,38.74219 17.55859,-7.88672 34.1914,-18.67969 52.17578,-26.17188 33.53906,22.37891 77.76562,35.98438 126.24219,35.98438 104.79687,0 189.75,-63.55078 189.75,-141.94531 0,-78.39844 -84.95313,-141.953128 -189.75,-141.953128 z m 0,0"
       fill-opacity="1"
       fill-rule="nonzero"
       id="path856" />
  </g>
  <path
     fill="#ffffff"
     d="m 420.21539,136.4818 c 0,15.77198 -12.80551,28.63748 -28.50219,28.63748 H 111.09968 c -4.26896,0 -8.53657,-0.96746 -12.391913,-2.90511 l -16.110305,2.76768 7.849023,-8.85412 c -10.878523,-11.48304 -10.327951,-29.60768 1.101143,-40.39811 5.231783,-5.11898 12.254942,-7.88665 19.552052,-7.88665 h 280.75046 c 15.69668,0 28.36525,12.72805 28.36525,28.63883 z m 0,0"
     fill-opacity="1"
     fill-rule="nonzero"
     id="path860"
     style="stroke-width:0.347748" />
  <g
     clip-path="url(#db0cf7ac34)"
     id="g864"
     transform="matrix(0.347158,0,0,0.34834149,0.30202937,-0.4409021)">
    <path
       fill="#ffffff"
       d="m 237.05469,476.87109 c -0.79297,0 -1.1875,-0.39843 -1.58594,-1.1914 -0.39844,-0.79297 -0.39844,-1.58985 0.39844,-2.38282 l 21.41406,-24.22656 c -14.67188,-16.28515 -22.21094,-36.9375 -21.8125,-58.78125 0.39844,-21.84375 9.51953,-42.89453 25.78125,-58.38281 15.86328,-14.69531 36.08984,-23.03516 57.90625,-23.03516 h 808.71095 c 46.0078,0 83.6875,37.73047 83.6875,83.80078 0,46.46875 -37.6797,84.19922 -84.082,84.19922 H 319.15625 c -12.29688,0 -24.98828,-2.78125 -36.09375,-8.33984 l -46.00781,8.33984 c 0.39843,0 0,0 0,0 z m 46.40625,-12.3125 c 0.39453,0 0.79297,0 0.79297,0.39844 10.70703,5.16406 23.0039,8.33984 34.90234,8.33984 h 808.71095 c 44.0273,0 80.1211,-35.74609 80.1211,-80.22656 -0.3985,-44.48437 -36.0938,-80.22656 -80.1211,-80.22656 H 319.15625 c -20.625,0 -40.05859,7.94141 -55.12891,21.84375 -15.46875,14.69531 -24.19531,34.55078 -24.98828,56 -0.39844,21.44531 7.53516,41.70312 22.21094,57.19141 0.79297,0.79296 0.79297,1.98437 0,2.78125 l -18.64063,21.44531 40.85157,-7.54688 c -0.39844,0 0,0 0,0 z m 0,0"
       fill-opacity="1"
       fill-rule="nonzero"
       id="path862" />
  </g>
  <g
     clip-path="url(#600942e565)"
     id="g868"
     transform="matrix(0.347158,0,0,0.34834149,0.30202937,-0.4409021)">
    <path
       fill="#ff89f0"
       d="M 476.77344,532.17578 H -55.34375 c -28.796875,0 -52.14063,23.30469 -52.14063,52.05469 v 37.07031 c 0,28.75 23.343755,52.05469 52.14063,52.05469 h 46.445312 c 4.144532,0 8.3125,0.95312 11.769532,3.23437 17.226562,11.34766 12.832031,44.375 9.617187,74.4375 -0.765625,7.13672 9.015625,9.91797 12.113281,3.44141 11.972657,-25.05469 27.003907,-54.98828 36.484376,-68.30859 5.773437,-8.11719 15.234374,-12.80469 25.210937,-12.80469 H 476.76953 c 28.79688,0 52.14453,-23.30469 52.14453,-52.05469 v -37.07031 c 0,-28.75 -23.34375,-52.05469 -52.14062,-52.05469 z m 0,0"
       fill-opacity="1"
       fill-rule="nonzero"
       id="path866" />
  </g>
  <path
     fill="#ff89f0"
     d="m 1.0600813,214.14564 c -0.6400723,0 -1.15809685,-0.51844 -1.15809685,-1.15798 0,-1.6206 -1.31540375,-2.93912 -2.93457015,-2.93912 -1.6164549,0 -2.933214,1.31852 -2.933214,2.93912 0,0.63954 -0.5180246,1.15798 -1.1567415,1.15798 -0.638716,0 -1.1580969,-0.51844 -1.1580969,-1.15798 0,-2.89967 2.3541646,-5.25779 5.2494086,-5.25779 2.89388673,0 5.2480523,2.35812 5.2480523,5.25779 0,0.63954 -0.5180247,1.15798 -1.1567415,1.15798 z m 0,0"
     fill-opacity="1"
     fill-rule="nonzero"
     id="path870"
     style="stroke-width:0.347748" />
  <g
     clip-path="url(#f6f1f558a1)"
     id="g874"
     transform="matrix(0.347158,0,0,0.34834149,0.30202937,-0.4409021)">
    <path
       fill="#9f54ff"
       d="m 1501.9414,43.839844 h -438.5508 c -23.7343,0 -42.9726,19.253906 -42.9726,43.007812 v 30.628904 c 0,23.75391 19.2383,43.00781 42.9726,43.00781 h 38.2774 c 3.4179,0 6.8515,0.78907 9.7031,2.67188 14.1953,9.37891 10.5742,36.66406 7.9219,61.50391 -0.6289,5.89843 7.4336,8.19531 9.9843,2.84375 9.8711,-20.69922 22.2579,-45.4336 30.0704,-56.4375 4.7578,-6.70704 12.5586,-10.58204 20.7773,-10.58204 h 321.8164 c 23.7344,0 42.9727,-19.2539 42.9727,-43.00781 V 86.847656 c 0,-23.753906 -19.2383,-43.007812 -42.9727,-43.007812 z m 0,0"
       fill-opacity="1"
       fill-rule="nonzero"
       id="path872" />
  </g>
  <path
     fill="#9f54ff"
     d="m 382.18395,46.447769 c -0.19527,-0.276223 -0.57496,-0.342901 -0.85162,-0.148316 -4.1686,2.948654 -9.90753,2.038341 -12.98315,-1.989357 0.48276,-0.42046 0.84213,-0.964742 1.02249,-1.602917 0.0923,-0.325209 -0.0963,-0.664024 -0.42037,-0.756554 -0.32412,-0.09252 -0.6618,0.09662 -0.75399,0.423182 -0.31058,1.098091 -1.48224,1.774365 -2.84777,1.645096 -0.33362,-0.0313 -0.63333,0.216354 -0.66449,0.552448 -0.0327,0.337456 0.21424,0.636811 0.55054,0.668109 0.15053,0.01362 0.30106,0.02178 0.44887,0.02178 0.58042,0 1.12827,-0.110218 1.62055,-0.311602 2.08971,2.807143 5.3104,4.309366 8.58128,4.309366 2.1304,0 4.28117,-0.634092 6.14989,-1.956703 0.27525,-0.195942 0.34168,-0.578299 0.14777,-0.854523 z m 0,0"
     fill-opacity="1"
     fill-rule="nonzero"
     id="path876"
     style="stroke-width:0.347748" />
  <path
     fill="#9f54ff"
     d="m 385.9254,38.962509 c -0.52614,0 -0.95332,-0.428622 -0.95332,-0.957938 0,-1.337579 -1.08487,-2.427506 -2.41928,-2.427506 -1.33166,0 -2.41653,1.089927 -2.41653,2.427506 0,0.529316 -0.42718,0.957938 -0.95468,0.957938 -0.52616,0 -0.95334,-0.428622 -0.95334,-0.957938 0,-2.394848 1.94058,-4.343385 4.32591,-4.343385 2.38536,0 4.32593,1.948537 4.32593,4.343385 0,0.529316 -0.42717,0.957938 -0.95469,0.957938 z m 0,0"
     fill-opacity="1"
     fill-rule="nonzero"
     id="path878"
     style="stroke-width:0.347748" />
  <path
     fill="#9f54ff"
     d="m 369.59812,38.962509 c -0.52615,0 -0.95333,-0.428622 -0.95333,-0.957938 0,-1.337579 -1.08486,-2.427506 -2.41925,-2.427506 -1.33305,0 -2.41791,1.089927 -2.41791,2.427506 0,0.529316 -0.42715,0.957938 -0.95329,0.957938 -0.5262,0 -0.95333,-0.428622 -0.95333,-0.957938 0,-2.394848 1.94053,-4.343385 4.32589,-4.343385 2.38536,0 4.32591,1.948537 4.32591,4.343385 0,0.529316 -0.42714,0.957938 -0.95469,0.957938 z m 0,0"
     fill-opacity="1"
     fill-rule="nonzero"
     id="path880"
     style="stroke-width:0.347748" />
  <g
     clip-path="url(#23518146ce)"
     id="g884"
     transform="matrix(0.347158,0,0,0.34834149,0.30202937,-0.4409021)">
    <path
       fill="#00abff"
       d="M 127.20703,233.1875 H -61.195312 c -13.011719,0 -23.550782,10.53906 -23.550782,23.55078 V 468.6875 l 47.101563,-47.10156 H 127.20703 c 13.01172,0 23.54688,-10.53907 23.54688,-23.55078 V 256.73828 c 0,-13.01172 -10.53516,-23.55078 -23.54688,-23.55078 z m 0,0"
       fill-opacity="1"
       fill-rule="nonzero"
       id="path882" />
  </g>
  <g
     clip-path="url(#319cef8654)"
     id="g888"
     transform="matrix(0.347158,0,0,0.34834149,0.30202937,-0.4409021)">
    <path
       fill="#13b855"
       d="m 1455.6445,271.41016 h -188.3984 c -13.0117,0 -23.5508,10.53906 -23.5508,23.55078 v 211.94922 l 47.1016,-47.09766 h 164.8476 c 13.0118,0 23.5508,-10.53906 23.5508,-23.55078 V 294.96094 c 0,-13.01172 -10.539,-23.55078 -23.5508,-23.55078 z m 0,0"
       fill-opacity="1"
       fill-rule="nonzero"
       id="path886" />
  </g>
  <g
     clip-path="url(#25a8711752)"
     id="g892"
     transform="matrix(0.347158,0,0,0.34834149,0.30202937,-0.4409021)">
    <path
       fill="#13b855"
       d="m 791.35937,864.71094 c -51.54788,-4.44111 -73.54904,-42.20817 -126.64959,-30.59754 -64.20013,-16.10159 -22.02,-86.15139 -72.03088,-110.00824 -32.55103,-65.93434 63.8603,-70.67858 82.15313,-106.69115 49.49814,-55.25921 108.90069,12.77203 162.09375,-18.75385 61.33434,-0.74883 52.20192,73.80688 107.1651,81.13305 42.96685,43.34779 -14.14724,83.03614 1.71088,129.53101 -34.37718,73.61938 -105.84496,8.71431 -154.44239,55.38672 z"
       fill-opacity="1"
       fill-rule="nonzero"
       id="path890" />
  </g>
  <g
     fill="#000000"
     fill-opacity="1"
     id="g900"
     transform="matrix(0.347158,0,0,0.34834149,0.30202937,-0.4409021)">
    <g
       transform="translate(599.98528,414.15249)"
       id="g898">
      <g
         id="g896">
        <path
           d="m 20.183594,1.507812 c 10.242187,0 17.167968,-5.542968 17.167968,-13.917968 0,-6.328125 -4.277343,-10.242188 -13.191406,-11.988282 l -6.507812,-1.328124 c -4.941406,-1.023438 -7.046875,-2.832032 -7.046875,-5.902344 0,-3.796875 3.191406,-6.628906 8.253906,-6.628906 4.816406,0 8.433594,3.132812 8.976563,7.832031 l 6.925781,-1.566407 c -1.144531,-7.347656 -7.53125,-12.230468 -15.902344,-12.230468 -9.28125,0 -15.667969,5.421875 -15.667969,13.4375 0,6.203125 3.859375,9.820312 12.292969,11.566406 l 6.445313,1.386719 c 5.664062,1.203125 8.074218,3.132812 8.074218,6.386719 0,3.976562 -3.675781,6.988281 -9.640625,6.988281 -6.566406,0 -11.566406,-4.097657 -12.050781,-10.003907 l -7.046875,1.328126 C 2.230469,-4.15625 10,1.507812 20.183594,1.507812 Z m 0,0"
           id="path894" />
      </g>
    </g>
  </g>
  <g
     fill="#000000"
     fill-opacity="1"
     id="g908"
     transform="matrix(0.347158,0,0,0.34834149,0.30202937,-0.4409021)">
    <g
       transform="translate(638.42233,414.15249)"
       id="g906">
      <g
         id="g904">
        <path
           d="m 19.21875,1.203125 c 6.6875,0 12.472656,-3.132813 14.640625,-7.648437 L 29.339844,-9.21875 c -1.808594,2.894531 -5.601563,5.0625 -9.941406,5.0625 -5.84375,0 -10.179688,-3.675781 -10.78125,-9.160156 h 24.21875 c 0.179687,-0.722656 0.238281,-1.746094 0.238281,-2.589844 -0.05859,-9.335938 -6.144531,-15.964844 -15.421875,-15.964844 -9.457032,0 -16.085938,6.746094 -16.085938,16.328125 0,9.757813 7.351563,16.746094 17.652344,16.746094 z M 8.617188,-17.953125 c 0.660156,-5.0625 4.214843,-8.554687 9.035156,-8.554687 4.699218,0 7.953125,3.132812 8.433594,8.554687 z m 0,0"
           id="path902" />
      </g>
    </g>
  </g>
  <g
     fill="#000000"
     fill-opacity="1"
     id="g916"
     transform="matrix(0.347158,0,0,0.34834149,0.30202937,-0.4409021)">
    <g
       transform="translate(673.60609,414.15249)"
       id="g914">
      <g
         id="g912">
        <path
           d="m 15.90625,1.144531 c 8.070312,0 13.855469,-4.15625 13.855469,-10.183593 0,-4.816407 -3.191407,-7.46875 -10.601563,-8.914063 l -4.761718,-0.84375 c -3.976563,-0.84375 -5.664063,-1.929687 -5.664063,-3.855469 0.0625,-2.230468 2.59375,-4.21875 5.964844,-4.21875 3.855469,0 6.6875,2.050782 7.050781,5 l 6.023438,-1.144531 C 26.808594,-28.195312 21.6875,-31.75 14.882812,-31.75 c -7.171874,0 -12.171874,3.855469 -12.230468,9.640625 0,4.699219 2.832031,7.289063 9.335937,8.492187 l 4.699219,0.84375 c 4.761719,0.90625 6.871094,2.167969 6.871094,4.277344 0,2.652344 -3.253906,4.519532 -7.414063,4.519532 -4.816406,0 -8.492187,-2.53125 -8.792969,-6.324219 L 1.144531,-9.398438 C 1.625,-2.710938 7.953125,1.144531 15.90625,1.144531 Z m 0,0"
           id="path910" />
      </g>
    </g>
  </g>
  <g
     fill="#000000"
     fill-opacity="1"
     id="g924"
     transform="matrix(0.347158,0,0,0.34834149,0.30202937,-0.4409021)">
    <g
       transform="translate(704.51237,414.15249)"
       id="g922">
      <g
         id="g920">
        <path
           d="m 6.507812,-35.726562 c 2.53125,0 4.398438,-1.6875 4.398438,-4.277344 0,-2.53125 -1.867188,-4.21875 -4.398438,-4.21875 -2.652343,0 -4.398437,1.6875 -4.398437,4.21875 0,2.589844 1.746094,4.277344 4.398437,4.277344 z M 3.074219,0 H 9.820312 V -30.664062 H 3.074219 Z m 0,0"
           id="path918" />
      </g>
    </g>
  </g>
  <g
     fill="#000000"
     fill-opacity="1"
     id="g932"
     transform="matrix(0.347158,0,0,0.34834149,0.30202937,-0.4409021)">
    <g
       transform="translate(717.52554,414.15249)"
       id="g930">
      <g
         id="g928">
        <path
           d="m 18.253906,1.203125 c 10.0625,0 16.691406,-6.566406 16.691406,-16.507813 0,-10 -6.628906,-16.566406 -16.691406,-16.566406 -10.058594,0 -16.6875,6.566406 -16.6875,16.566406 0,9.941407 6.628906,16.507813 16.6875,16.507813 z m 0,-5.78125 c -6.082031,0 -9.941406,-4.21875 -9.941406,-10.726563 0,-6.503906 3.859375,-10.660156 9.941406,-10.660156 6.027344,0 9.941406,4.15625 9.941406,10.660156 0,6.507813 -3.914062,10.726563 -9.941406,10.726563 z m 0,0"
           id="path926" />
      </g>
    </g>
  </g>
  <g
     fill="#000000"
     fill-opacity="1"
     id="g940"
     transform="matrix(0.347158,0,0,0.34834149,0.30202937,-0.4409021)">
    <g
       transform="translate(754.03472,414.15249)"
       id="g938">
      <g
         id="g936">
        <path
           d="m 20.90625,-31.691406 c -5.121094,0 -8.917969,2.230468 -11.386719,6.085937 h -0.0625 L 8.617188,-30.664062 H 2.710938 V 0 h 6.808593 v -17.109375 c 0,-5.242187 3.613281,-8.855469 8.675781,-8.855469 4.035157,0 6.625,2.769532 6.625,7.167969 V 0 h 6.808594 v -20.425781 c 0,-7.046875 -4.035156,-11.265625 -10.722656,-11.265625 z m 0,0"
           id="path934" />
      </g>
    </g>
  </g>
  <g
     fill="#000000"
     fill-opacity="1"
     id="g946">
    <g
       transform="translate(788.13405,414.15249)"
       id="g944">
      <g
         id="g942" />
    </g>
  </g>
  <g
     fill="#000000"
     fill-opacity="1"
     id="g954"
     transform="matrix(0.347158,0,0,0.34834149,0.30202937,-0.4409021)">
    <g
       transform="translate(803.0751,414.15249)"
       id="g952">
      <g
         id="g950">
        <path
           d="m 18.917969,1.386719 c 9.15625,0 15.722656,-5.421875 15.722656,-12.953125 0,-5.0625 -3.011719,-9.039063 -8.3125,-10.90625 v -0.121094 c 3.675781,-1.445312 5.964844,-5.121094 5.964844,-9.335938 0,-6.871093 -5.664063,-11.75 -13.496094,-11.75 -8.554687,0 -14.640625,6.023438 -14.941406,14.160157 l 7.351562,1.082031 c 0.121094,-5.480469 3.253907,-9.277344 7.589844,-9.277344 3.675781,0 6.265625,2.769532 6.265625,6.6875 0,3.734375 -2.230469,6.386719 -5.964844,6.507813 l -2.53125,0.121093 v 4.578126 l 3.074219,0.121093 c 3.734375,0.117188 7.289063,3.132813 7.289063,7.46875 0,4.277344 -3.371094,7.351563 -8.3125,7.351563 -5.605469,0 -9.398438,-4.277344 -9.761719,-10.242188 l -6.988281,1.625 C 2.53125,-4.820312 9.457031,1.386719 18.917969,1.386719 Z m 0,0"
           id="path948" />
      </g>
    </g>
  </g>
  <g
     clip-path="url(#3f1b0df195)"
     id="g958"
     transform="matrix(0.347158,0,0,0.34834149,0.30202937,-0.4409021)">
    <path
       fill="#ff4417"
       d="m 1001.7305,412.91406 37.9765,-30.69531 12.668,47.13672 48.7773,-2.53125 -17.4804,45.57031 40.9531,26.60156 -40.9531,26.60157 17.4804,45.57031 -48.7773,-2.52735 -12.668,47.13282 -37.9765,-30.69532 -37.97659,30.69532 -12.66407,-47.13282 -48.78125,2.52735 17.48047,-45.57031 -40.94922,-26.60157 40.94922,-26.60156 -17.48047,-45.57031 48.78125,2.53125 12.66407,-47.13672 37.97659,30.69531"
       fill-opacity="1"
       fill-rule="nonzero"
       id="path956" />
  </g>
  <g
     fill="#ffffff"
     fill-opacity="1"
     id="g966"
     transform="matrix(0.347158,0,0,0.34834149,0.30202937,-0.4409021)">
    <g
       transform="translate(974.91566,495.07627)"
       id="g964">
      <g
         id="g962">
        <path
           d="m 1.738281,0 h 4.925781 v -15.761719 h 0.0625 L 13.171875,0 H 17.5625 l 6.410156,-15.792969 h 0.0625 V 0 h 4.960938 V -22.488281 H 22.015625 L 15.414062,-6.03125 h -0.0625 L 8.78125,-22.488281 H 1.738281 Z m 0,0"
           id="path960" />
      </g>
    </g>
  </g>
  <g
     fill="#ffffff"
     fill-opacity="1"
     id="g974"
     transform="matrix(0.347158,0,0,0.34834149,0.30202937,-0.4409021)">
    <g
       transform="translate(1005.6417,495.07627)"
       id="g972">
      <g
         id="g970">
        <path
           d="m 11.527344,0.632812 c 6.191406,0 10.234375,-4.832031 10.234375,-11.878906 0,-7.074218 -4.042969,-11.875 -10.234375,-11.875 -6.191406,0 -10.265625,4.800782 -10.265625,11.875 0,7.046875 4.074219,11.878906 10.265625,11.878906 z m 0,-4.484374 c -3.03125,0 -5.019532,-3.035157 -5.019532,-7.394532 0,-4.386718 1.988282,-7.421875 5.019532,-7.421875 3.035156,0 4.992187,3.035157 4.992187,7.421875 0,4.359375 -1.957031,7.394532 -4.992187,7.394532 z m 0,0"
           id="path968" />
      </g>
    </g>
  </g>
  <g
     fill="#ffffff"
     fill-opacity="1"
     id="g982"
     transform="matrix(0.347158,0,0,0.34834149,0.30202937,-0.4409021)">
    <g
       transform="translate(925.07047,529.28637)"
       id="g980">
      <g
         id="g978">
        <path
           d="m 10.929688,0.789062 c 5.777343,0 9.820312,-2.84375 9.820312,-7.546874 0,-3.664063 -2.335938,-5.75 -7.453125,-6.601563 l -3.191406,-0.601563 c -2.335938,-0.441406 -3.347657,-1.199218 -3.347657,-2.558593 0,-1.609375 1.390626,-2.777344 3.601563,-2.777344 2.179687,0 3.855469,1.386719 4.136719,3.566406 l 4.835937,-1.074219 c -0.570312,-3.914062 -4.203125,-6.472656 -8.910156,-6.472656 -5.210937,0 -8.96875,2.839844 -8.96875,7.265625 0,3.535157 2.210937,5.527344 7.167969,6.472657 L 11.75,-8.9375 c 2.652344,0.535156 3.757812,1.355469 3.757812,2.746094 0,1.738281 -1.671874,2.96875 -4.359374,2.96875 -3,0 -5.210938,-1.769532 -5.527344,-4.453125 l -4.925782,0.917969 c 0.503907,4.863281 4.640626,7.546874 10.234376,7.546874 z m 0,0"
           id="path976" />
      </g>
    </g>
  </g>
  <g
     fill="#ffffff"
     fill-opacity="1"
     id="g990"
     transform="matrix(0.347158,0,0,0.34834149,0.30202937,-0.4409021)">
    <g
       transform="translate(946.29131,529.28637)"
       id="g988">
      <g
         id="g986">
        <path
           d="m 10.390625,0.632812 c 3.476563,0 6.507813,-1.484374 7.800781,-3.632812 l -2.746094,-2.117188 c -0.949218,1.296876 -2.84375,2.210938 -4.863281,2.210938 -2.652343,0 -4.613281,-1.515625 -4.898437,-3.851562 H 17.625 c 0.125,-0.507813 0.21875,-1.203126 0.21875,-1.832032 -0.03125,-4.867187 -3.347656,-8.214844 -8.398438,-8.214844 -5.179687,0 -8.75,3.507813 -8.71875,8.625 0,5.210938 3.980469,8.8125 9.664063,8.8125 z M 5.652344,-9.539062 c 0.285156,-2.273438 1.769531,-3.820313 3.792968,-3.820313 1.988282,0 3.347657,1.421875 3.503907,3.820313 z m 0,0"
           id="path984" />
      </g>
    </g>
  </g>
  <g
     fill="#ffffff"
     fill-opacity="1"
     id="g998"
     transform="matrix(0.347158,0,0,0.34834149,0.30202937,-0.4409021)">
    <g
       transform="translate(965.08059,529.28637)"
       id="g996">
      <g
         id="g994">
        <path
           d="m 1.261719,0 h 4.835937 v -8.875 c 0,-2.210938 1.167969,-3.695312 3.15625,-3.695312 1.644532,0 2.621094,1.042968 2.621094,2.808593 V 0 h 4.800781 v -8.875 c 0,-2.210938 1.167969,-3.695312 3.191407,-3.695312 1.609374,0 2.589843,1.042968 2.589843,2.808593 V 0 h 4.832031 v -10.832031 c 0,-3.664063 -1.894531,-5.8125 -5.085937,-5.8125 -2.460937,0 -4.609375,1.136719 -5.84375,3.535156 h -0.03125 c -0.695313,-2.304687 -2.367187,-3.535156 -4.894531,-3.535156 -2.496094,0 -4.644532,1.261719 -5.527344,3.410156 H 5.875 l -0.726562,-2.9375 H 1.261719 Z m 0,0"
           id="path992" />
      </g>
    </g>
  </g>
  <g
     fill="#ffffff"
     fill-opacity="1"
     id="g1006"
     transform="matrix(0.347158,0,0,0.34834149,0.30202937,-0.4409021)">
    <g
       transform="translate(993.53294,529.28637)"
       id="g1004">
      <g
         id="g1002">
        <path
           d="m 6.253906,0.472656 c 2.714844,0 4.832032,-1.324218 5.875,-3.253906 h 0.03125 l 0.0625,0.570312 c 0.222656,1.484376 1.738282,2.683594 3.695313,2.683594 1.484375,0 3.160156,-0.503906 4.136719,-1.484375 L 18.917969,-3.570312 C 18.570312,-3.125 18.066406,-2.84375 17.65625,-2.84375 c -0.503906,0 -0.820312,-0.441406 -0.820312,-1.167969 v -6.253906 c 0,-4.042969 -3.066407,-6.539063 -7.800782,-6.539063 -4.644531,0 -7.773437,2.433594 -8.054687,5.78125 l 4.703125,0.726563 c 0.160156,-1.609375 1.519531,-3 3.476562,-3 1.738282,0 2.9375,0.914063 2.9375,2.304687 0,0.664063 -0.507812,1.105469 -1.265625,1.167969 l -3.125,0.378907 C 2.875,-8.9375 0.472656,-6.917969 0.472656,-4.136719 c 0,2.777344 2.402344,4.609375 5.78125,4.609375 z M 8.085938,-2.84375 c -1.609376,0 -2.78125,-0.757812 -2.78125,-1.863281 0,-1.042969 0.917968,-1.894531 3.601562,-2.210938 l 3.097656,-0.347656 v 0.664063 c 0,2.179687 -1.644531,3.757812 -3.917968,3.757812 z m 0,0"
           id="path1000" />
      </g>
    </g>
  </g>
  <g
     fill="#ffffff"
     fill-opacity="1"
     id="g1014"
     transform="matrix(0.347158,0,0,0.34834149,0.30202937,-0.4409021)">
    <g
       transform="translate(1013.5854,529.28637)"
       id="g1012">
      <g
         id="g1010">
        <path
           d="m 11.84375,-16.644531 c -2.558594,0 -4.578125,1.230469 -5.746094,3.410156 H 6.0625 l -0.726562,-2.9375 H 1.261719 V 0 h 4.835937 v -8.9375 c 0,-2.210938 1.453125,-3.695312 3.535156,-3.695312 1.675782,0 2.71875,1.136718 2.71875,2.96875 V 0 h 4.832032 v -11.148438 c 0,-3.445312 -2.023438,-5.496093 -5.339844,-5.496093 z m 0,0"
           id="path1008" />
      </g>
    </g>
  </g>
  <g
     fill="#ffffff"
     fill-opacity="1"
     id="g1022"
     transform="matrix(0.347158,0,0,0.34834149,0.30202937,-0.4409021)">
    <g
       transform="translate(1031.9325,529.28637)"
       id="g1020">
      <g
         id="g1018">
        <path
           d="m 6.253906,0.472656 c 2.714844,0 4.832032,-1.324218 5.875,-3.253906 h 0.03125 l 0.0625,0.570312 c 0.222656,1.484376 1.738282,2.683594 3.695313,2.683594 1.484375,0 3.160156,-0.503906 4.136719,-1.484375 L 18.917969,-3.570312 C 18.570312,-3.125 18.066406,-2.84375 17.65625,-2.84375 c -0.503906,0 -0.820312,-0.441406 -0.820312,-1.167969 v -6.253906 c 0,-4.042969 -3.066407,-6.539063 -7.800782,-6.539063 -4.644531,0 -7.773437,2.433594 -8.054687,5.78125 l 4.703125,0.726563 c 0.160156,-1.609375 1.519531,-3 3.476562,-3 1.738282,0 2.9375,0.914063 2.9375,2.304687 0,0.664063 -0.507812,1.105469 -1.265625,1.167969 l -3.125,0.378907 C 2.875,-8.9375 0.472656,-6.917969 0.472656,-4.136719 c 0,2.777344 2.402344,4.609375 5.78125,4.609375 z M 8.085938,-2.84375 c -1.609376,0 -2.78125,-0.757812 -2.78125,-1.863281 0,-1.042969 0.917968,-1.894531 3.601562,-2.210938 l 3.097656,-0.347656 v 0.664063 c 0,2.179687 -1.644531,3.757812 -3.917968,3.757812 z m 0,0"
           id="path1016" />
      </g>
    </g>
  </g>
  <g
     fill="#ffffff"
     fill-opacity="1"
     id="g1028">
    <g
       transform="translate(1051.985,529.28637)"
       id="g1026">
      <g
         id="g1024" />
    </g>
  </g>
  <g
     fill="#ffffff"
     fill-opacity="1"
     id="g1036"
     transform="matrix(0.347158,0,0,0.34834149,0.30202937,-0.4409021)">
    <g
       transform="translate(1058.9638,529.28637)"
       id="g1034">
      <g
         id="g1032">
        <path
           d="m 1.105469,0 h 17.183593 v -3.820312 h -11.75 c 0,-1.800782 0.882813,-2.90625 3.253907,-4.074219 l 2.9375,-1.265625 c 3.976562,-1.671875 5.558593,-3.601563 5.558593,-6.757813 0,-4.328125 -3.160156,-7.203125 -7.929687,-7.203125 -4.863281,0 -8.371094,3.128906 -8.71875,7.832032 l 5.148437,0.917968 c 0.097657,-2.875 1.519532,-4.453125 3.382813,-4.453125 1.578125,0 2.683594,1.042969 2.683594,2.777344 0,1.738281 -0.882813,2.8125 -3.253907,3.917969 l -2.527343,1.105468 c -4.261719,1.800782 -5.9375,4.167969 -5.96875,8.527344 z m 0,0"
           id="path1030" />
      </g>
    </g>
  </g>
  <a
     id="a2786"
     xlink:href="https://jsi2jsi.github.io/SfL/docs/Mens-Netiq/Mens-Netiq.htm"
     transform="matrix(0.347158,0,0,0.34834149,0.30202937,-0.4409021)">
    <g
       clip-path="url(#fa36191acd)"
       id="g1042">
      <path
         fill="#ff89f0"
         d="m 1323.6953,745.10156 c -0.01,-0.0547 -0.02,-0.11328 -0.031,-0.17187 -2.5743,0.3125 -5.1836,0.45703 -7.7188,0.96093 -8.5859,1.71094 -15.8555,5.76954 -21.2773,12.75391 -5.5,7.09375 -7.3985,15.10938 -5.418,23.91797 1.3594,6.03516 4.5469,11.05078 9.0938,15.19141 0.6406,0.58203 0.7265,1.10156 0.5,1.8789 -0.8985,3.04688 -2.7383,5.45313 -5.0391,7.55078 -1.3594,1.23438 -2.7852,2.40235 -4.0899,3.69141 -1.0546,1.04297 -0.8828,1.50391 0.5235,1.85547 3.1953,0.79687 6.3711,0.41015 9.5234,-0.24219 5.5039,-1.14062 10.6953,-3.19141 15.7891,-5.52344 0.414,-0.1914 0.9492,-0.28515 1.3906,-0.21093 5.0508,0.83984 10.0899,0.77734 15.0859,-0.33594 8.8477,-1.98047 16.211,-6.35938 21.5196,-13.84375 4.4648,-6.29688 6.1523,-13.33594 4.8828,-20.96875 -1.2813,-7.67188 -5.2813,-13.78125 -11.3164,-18.55469 -6.8555,-5.41406 -14.7539,-7.85156 -23.418,-7.94922 z m 0,0"
         fill-opacity="1"
         fill-rule="nonzero"
         id="path1038" />
      <path
         fill="#ff89f0"
         d="m 1358.4258,771.60547 c 1.2734,7.63281 -0.4141,14.67578 -4.8828,20.97265 -5.3047,7.48047 -12.6719,11.86329 -21.5117,13.83985 -4.9961,1.11328 -10.0391,1.17578 -15.0899,0.33984 -0.4453,-0.0781 -0.9766,0.0195 -1.3906,0.21094 -5.0899,2.33203 -10.2813,4.37891 -15.793,5.51953 -3.1484,0.65234 -6.3242,1.04297 -9.5195,0.24609 -1.4063,-0.35546 -1.5742,-0.8125 -0.5235,-1.85546 1.3008,-1.28907 2.7266,-2.45313 4.086,-3.6875 2.3047,-2.10547 4.1445,-4.51172 5.043,-7.55469 0.2226,-0.78125 0.1406,-1.29688 -0.504,-1.87891 -4.5468,-4.14453 -7.7265,-9.15625 -9.0898,-15.19531 -1.9805,-8.8125 -0.078,-16.82422 5.418,-23.91797 5.4218,-6.97656 12.6914,-11.04297 21.2734,-12.74609 2.5352,-0.51172 5.1445,-0.65235 7.7227,-0.96485 0.016,0.0547 0.023,0.11328 0.031,0.16797 8.668,0.0937 16.5664,2.53906 23.4219,7.94922 6.0273,4.77344 10.0273,10.88281 11.3086,18.55469 z m 0,0"
         fill-opacity="1"
         fill-rule="nonzero"
         id="path1040" />
    </g>
  </a>
  <a
     id="a2794"
     xlink:href="https://jsi2jsi.github.io/SfL/docs/Acc_vs_Plagio/Acc_vs_Plagio.htm"
     transform="matrix(0.347158,0,0,0.34834149,0.30202937,-0.4409021)">
    <g
       clip-path="url(#8c7385ac8e)"
       id="g1046">
      <path
         fill="#00abff"
         d="M 46.753906,232.76953 H -13.84375 c -4.1875,0 -7.574219,3.39063 -7.574219,7.57422 v 68.17578 l 15.148438,-15.14844 h 53.023437 c 4.1875,0 7.578125,-3.39062 7.578125,-7.57812 v -45.44922 c 0,-4.18359 -3.390625,-7.57422 -7.578125,-7.57422 z m 0,0"
         fill-opacity="1"
         fill-rule="nonzero"
         id="path1044" />
    </g>
  </a>
  <a
     id="a2798"
     xlink:href="http://jsi2jsi.github.io/SfL/docs/Para_Evit_Plagio/Para_Evit_Plagio.htm"
     transform="matrix(0.347158,0,0,0.34834149,0.30202937,-0.4409021)">
    <g
       clip-path="url(#07ed81965e)"
       id="g1050">
      <path
         fill="#00abff"
         d="M 124.69141,323.80078 H 64.089844 c -4.183594,0 -7.574219,3.39063 -7.574219,7.57422 v 68.17578 l 15.152344,-15.14844 h 53.023441 c 4.18359,0 7.57421,-3.39062 7.57421,-7.57812 V 331.375 c 0,-4.18359 -3.39062,-7.57422 -7.57421,-7.57422 z m 0,0"
         fill-opacity="1"
         fill-rule="nonzero"
         id="path1048" />
    </g>
  </a>
  <a
     id="a2803"
     xlink:href="https://jsi2jsi.github.io/SfL/docs/Caract-AV-T/Caract-AV-T.htm"
     transform="matrix(0.347158,0,0,0.34834149,0.30202937,-0.4409021)">
    <g
       clip-path="url(#11a01b2c08)"
       id="g1056"
       transform="matrix(0.83648454,0,0,0.82702035,63.552023,2.6872659)">
      <path
         fill="#ff4417"
         d="m 334.44922,-4.71875 c -0.0117,-0.085938 -0.0274,-0.179688 -0.0469,-0.265625 -3.96875,0.480469 -7.99609,0.699219 -11.91015,1.480469 -13.23828,2.632812 -24.45703,8.875 -32.81641,19.621094 -8.48437,10.910156 -11.41406,23.242187 -8.35937,36.792968 2.09765,9.289063 7.01171,17 14.02734,23.371094 0.98828,0.898438 1.12109,1.699219 0.76953,2.890625 -1.38281,4.691406 -4.21875,8.390625 -7.77344,11.621094 -2.09375,1.898437 -4.29297,3.695312 -6.30468,5.675781 -1.62891,1.605469 -1.36329,2.3125 0.80468,2.855469 4.92969,1.226561 9.82813,0.632812 14.69141,-0.375 8.49219,-1.75 16.5,-4.910157 24.35937,-8.496094 0.63282,-0.292969 1.45704,-0.4375 2.14063,-0.324219 7.79297,1.289063 15.56641,1.199219 23.26953,-0.515625 13.65234,-3.046875 25.01172,-9.78125 33.19531,-21.296875 6.89063,-9.6875 9.48828,-20.519531 7.53125,-32.261718 C 386.05469,24.25 379.88281,14.855469 370.57422,7.507812 360,-0.820312 347.81641,-4.570312 334.44922,-4.71875 Z m 0,0"
         fill-opacity="1"
         fill-rule="nonzero"
         id="path1052" />
      <path
         fill="#ff4417"
         d="m 388.02344,36.058594 c 1.96093,11.742187 -0.64063,22.574218 -7.53516,32.261718 -8.17969,11.507813 -19.53906,18.25 -33.18359,21.289063 -7.70313,1.71875 -15.48047,1.8125 -23.26953,0.527344 -0.6875,-0.121094 -1.50782,0.02734 -2.14844,0.320312 -7.85156,3.59375 -15.85938,6.742188 -24.36328,8.496094 -4.85547,1.003906 -9.75,1.605465 -14.6836,0.378906 -2.17187,-0.550781 -2.42968,-1.25 -0.80859,-2.855469 2.01172,-1.984374 4.20703,-3.777343 6.30469,-5.675781 3.55859,-3.234375 6.39062,-6.9375 7.77734,-11.617187 0.34375,-1.203125 0.22266,-2 -0.77344,-2.894532 -7.01562,-6.375 -11.92187,-14.082031 -14.01953,-23.375 -3.05469,-13.558593 -0.125,-25.886718 8.35156,-36.796874 8.36719,-10.738282 19.58204,-16.988282 32.81641,-19.613282 3.91406,-0.785156 7.9375,-1.003906 11.91406,-1.484375 0.0234,0.085938 0.0352,0.171875 0.0469,0.257813 13.37109,0.148437 25.55469,3.910156 36.1289,12.234375 9.30079,7.339843 15.46875,16.742187 17.44532,28.546875 z m 0,0"
         fill-opacity="1"
         fill-rule="nonzero"
         id="path1054" />
    </g>
  </a>
  <g
     fill="#000000"
     fill-opacity="1"
     id="g1064"
     transform="matrix(0.347158,0,0,0.34834149,0.30202937,-0.4409021)">
    <g
       transform="translate(598.6992,65.796541)"
       id="g1062">
      <g
         id="g1060">
        <path
           d="M 0.480469,0 H 8.375 L 11.75,-9.339844 H 30.363281 L 33.679688,0 h 7.890624 l -15.90625,-42.714844 h -9.15625 z M 13.375,-15.183594 21.027344,-36.207031 h 0.121094 l 7.53125,21.023437 z m 0,0"
           id="path1058" />
      </g>
    </g>
  </g>
  <g
     fill="#000000"
     fill-opacity="1"
     id="g1072"
     transform="matrix(0.347158,0,0,0.34834149,0.30202937,-0.4409021)">
    <g
       transform="translate(640.75103,65.796541)"
       id="g1070">
      <g
         id="g1068">
        <path
           d="m 16.085938,13.855469 c 10.84375,0 17.894531,-6.445313 17.894531,-16.566407 v -27.953124 h -5.84375 l -0.90625,5.421874 h -0.05859 c -2.230469,-3.796874 -6.808594,-6.386718 -11.265625,-6.386718 -8.496094,0 -14.28125,6.386718 -14.28125,16.023437 0,9.398438 5.84375,15.726563 14.402344,15.726563 4.277344,0 8.855468,-2.230469 11.085937,-5.90625 h 0.05859 v 2.953125 c 0,6.628906 -4.578125,10.90625 -11.507813,10.90625 -5.121093,0 -10.0625,-2.410157 -12.652343,-6.085938 l -3.375,4.878907 c 3.195312,4.21875 9.640625,6.988281 16.449219,6.988281 z m 1.867187,-19.457031 c -5.664063,0 -9.578125,-4.097657 -9.578125,-10.003907 0,-6.144531 3.914062,-10.300781 9.578125,-10.300781 5.605469,0 9.519531,4.398438 9.519531,10.300781 0,5.726563 -3.914062,10.003907 -9.519531,10.003907 z m 0,0"
           id="path1066" />
      </g>
    </g>
  </g>
  <g
     fill="#000000"
     fill-opacity="1"
     id="g1080"
     transform="matrix(0.347158,0,0,0.34834149,0.30202937,-0.4409021)">
    <g
       transform="translate(677.50118,65.796541)"
       id="g1078">
      <g
         id="g1076">
        <path
           d="m 19.21875,1.203125 c 6.6875,0 12.472656,-3.132813 14.640625,-7.648437 L 29.339844,-9.21875 c -1.808594,2.894531 -5.601563,5.0625 -9.941406,5.0625 -5.84375,0 -10.179688,-3.675781 -10.78125,-9.160156 h 24.21875 c 0.179687,-0.722656 0.238281,-1.746094 0.238281,-2.589844 -0.05859,-9.335938 -6.144531,-15.964844 -15.421875,-15.964844 -9.457032,0 -16.085938,6.746094 -16.085938,16.328125 0,9.757813 7.351563,16.746094 17.652344,16.746094 z M 8.617188,-17.953125 c 0.660156,-5.0625 4.214843,-8.554687 9.035156,-8.554687 4.699218,0 7.953125,3.132812 8.433594,8.554687 z m 0,0"
           id="path1074" />
      </g>
    </g>
  </g>
  <g
     fill="#000000"
     fill-opacity="1"
     id="g1088"
     transform="matrix(0.347158,0,0,0.34834149,0.30202937,-0.4409021)">
    <g
       transform="translate(712.68494,65.796541)"
       id="g1086">
      <g
         id="g1084">
        <path
           d="m 20.90625,-31.691406 c -5.121094,0 -8.917969,2.230468 -11.386719,6.085937 h -0.0625 L 8.617188,-30.664062 H 2.710938 V 0 h 6.808593 v -17.109375 c 0,-5.242187 3.613281,-8.855469 8.675781,-8.855469 4.035157,0 6.625,2.769532 6.625,7.167969 V 0 h 6.808594 v -20.425781 c 0,-7.046875 -4.035156,-11.265625 -10.722656,-11.265625 z m 0,0"
           id="path1082" />
      </g>
    </g>
  </g>
  <g
     fill="#000000"
     fill-opacity="1"
     id="g1096"
     transform="matrix(0.347158,0,0,0.34834149,0.30202937,-0.4409021)">
    <g
       transform="translate(746.78427,65.796541)"
       id="g1094">
      <g
         id="g1092">
        <path
           d="m 17.109375,1.203125 c 4.820313,0 9.398437,-2.710937 10.90625,-7.167969 l -3.3125,-3.554687 c -1.027344,3.3125 -3.4375,5.121093 -6.386719,5.121093 -3.011718,0 -5.121094,-2.289062 -5.121094,-5.664062 l -0.0625,-15.242188 h 13.015626 v -5.359374 H 13.132812 l 0.0625,-10.242188 -6.808593,1.503906 v 8.738282 H 0.121094 v 5.359374 H 6.386719 V -9.15625 c 0,6.265625 4.21875,10.359375 10.722656,10.359375 z m 0,0"
           id="path1090" />
      </g>
    </g>
  </g>
  <g
     fill="#000000"
     fill-opacity="1"
     id="g1104"
     transform="matrix(0.347158,0,0,0.34834149,0.30202937,-0.4409021)">
    <g
       transform="translate(775.22046,65.796541)"
       id="g1102">
      <g
         id="g1100">
        <path
           d="m 19.21875,1.203125 c 6.6875,0 12.472656,-3.132813 14.640625,-7.648437 L 29.339844,-9.21875 c -1.808594,2.894531 -5.601563,5.0625 -9.941406,5.0625 -5.84375,0 -10.179688,-3.675781 -10.78125,-9.160156 h 24.21875 c 0.179687,-0.722656 0.238281,-1.746094 0.238281,-2.589844 -0.05859,-9.335938 -6.144531,-15.964844 -15.421875,-15.964844 -9.457032,0 -16.085938,6.746094 -16.085938,16.328125 0,9.757813 7.351563,16.746094 17.652344,16.746094 z M 8.617188,-17.953125 c 0.660156,-5.0625 4.214843,-8.554687 9.035156,-8.554687 4.699218,0 7.953125,3.132812 8.433594,8.554687 z m 0,0"
           id="path1098" />
      </g>
    </g>
  </g>
  <g
     fill="#000000"
     fill-opacity="1"
     id="g1112"
     transform="matrix(0.347158,0,0,0.34834149,0.30202937,-0.4409021)">
    <g
       transform="translate(810.40422,65.796541)"
       id="g1110">
      <g
         id="g1108">
        <path
           d="m 15.90625,1.144531 c 8.070312,0 13.855469,-4.15625 13.855469,-10.183593 0,-4.816407 -3.191407,-7.46875 -10.601563,-8.914063 l -4.761718,-0.84375 c -3.976563,-0.84375 -5.664063,-1.929687 -5.664063,-3.855469 0.0625,-2.230468 2.59375,-4.21875 5.964844,-4.21875 3.855469,0 6.6875,2.050782 7.050781,5 l 6.023438,-1.144531 C 26.808594,-28.195312 21.6875,-31.75 14.882812,-31.75 c -7.171874,0 -12.171874,3.855469 -12.230468,9.640625 0,4.699219 2.832031,7.289063 9.335937,8.492187 l 4.699219,0.84375 c 4.761719,0.90625 6.871094,2.167969 6.871094,4.277344 0,2.652344 -3.253906,4.519532 -7.414063,4.519532 -4.816406,0 -8.492187,-2.53125 -8.792969,-6.324219 L 1.144531,-9.398438 C 1.625,-2.710938 7.953125,1.144531 15.90625,1.144531 Z m 0,0"
           id="path1106" />
      </g>
    </g>
  </g>
  <g
     fill="#000000"
     fill-opacity="1"
     id="g1120"
     transform="matrix(0.347158,0,0,0.34834149,0.30202937,-0.4409021)">
    <g
       transform="translate(559.74607,131.79654)"
       id="g1118">
      <g
         id="g1116">
        <path
           d="m 19.21875,1.203125 c 6.6875,0 12.472656,-3.132813 14.640625,-7.648437 L 29.339844,-9.21875 c -1.808594,2.894531 -5.601563,5.0625 -9.941406,5.0625 -5.84375,0 -10.179688,-3.675781 -10.78125,-9.160156 h 24.21875 c 0.179687,-0.722656 0.238281,-1.746094 0.238281,-2.589844 -0.05859,-9.335938 -6.144531,-15.964844 -15.421875,-15.964844 -9.457032,0 -16.085938,6.746094 -16.085938,16.328125 0,9.757813 7.351563,16.746094 17.652344,16.746094 z M 8.617188,-17.953125 c 0.660156,-5.0625 4.214843,-8.554687 9.035156,-8.554687 4.699218,0 7.953125,3.132812 8.433594,8.554687 z m 0,0"
           id="path1114" />
      </g>
    </g>
  </g>
  <g
     fill="#000000"
     fill-opacity="1"
     id="g1128"
     transform="matrix(0.347158,0,0,0.34834149,0.30202937,-0.4409021)">
    <g
       transform="translate(594.92983,131.79654)"
       id="g1126">
      <g
         id="g1124">
        <path
           d="m 16.265625,1.085938 c 4.941406,0 8.976563,-2.410157 11.328125,-6.628907 h 0.05859 L 28.558594,0 h 5.78125 V -44.523438 H 27.53125 V -25.125 h -0.05859 c -2.410156,-4.214844 -6.324218,-6.566406 -11.265625,-6.566406 -8.496093,0 -14.640625,6.75 -14.640625,16.386718 0,9.640626 6.207032,16.390626 14.699219,16.390626 z m 1.808594,-5.90625 c -5.542969,0 -9.699219,-4.457032 -9.699219,-10.484376 0,-5.960937 4.097656,-10.480468 9.699219,-10.480468 5.601562,0 9.699219,4.519531 9.699219,10.480468 0,5.90625 -4.097657,10.484376 -9.699219,10.484376 z m 0,0"
           id="path1122" />
      </g>
    </g>
  </g>
  <g
     fill="#000000"
     fill-opacity="1"
     id="g1136"
     transform="matrix(0.347158,0,0,0.34834149,0.30202937,-0.4409021)">
    <g
       transform="translate(631.98122,131.79654)"
       id="g1134">
      <g
         id="g1132">
        <path
           d="m 13.195312,1.023438 c 5.121094,0 8.914063,-2.226563 11.386719,-6.085938 h 0.05859 L 25.484375,0 h 5.90625 v -30.664062 h -6.808594 v 17.109374 c 0,5.242188 -3.617187,8.855469 -8.675781,8.855469 -4.039062,0 -6.628906,-2.769531 -6.628906,-7.167969 V -30.664062 H 2.46875 v 20.421874 c 0,7.050782 4.039062,11.265626 10.726562,11.265626 z m 0,0"
           id="path1130" />
      </g>
    </g>
  </g>
  <g
     fill="#000000"
     fill-opacity="1"
     id="g1144"
     transform="matrix(0.347158,0,0,0.34834149,0.30202937,-0.4409021)">
    <g
       transform="translate(666.14079,131.79654)"
       id="g1142">
      <g
         id="g1140">
        <path
           d="m 17.953125,1.203125 c 8.316406,0 14.820313,-5.238281 15.847656,-12.710937 l -6.449219,-1.023438 c -0.660156,4.757812 -4.519531,8.011719 -9.277343,8.011719 -5.601563,0 -9.699219,-4.335938 -9.699219,-10.785157 0,-6.445312 3.796875,-10.78125 8.976562,-10.78125 3.796876,0 7.109376,2.527344 8.074219,6.746094 L 31.75,-20.90625 c -1.445312,-6.507812 -7.230469,-10.964844 -14.519531,-10.964844 -9.277344,0 -15.664063,6.808594 -15.664063,16.566406 0,9.703126 6.6875,16.507813 16.386719,16.507813 z m 0,0"
           id="path1138" />
      </g>
    </g>
  </g>
  <g
     fill="#000000"
     fill-opacity="1"
     id="g1152"
     transform="matrix(0.347158,0,0,0.34834149,0.30202937,-0.4409021)">
    <g
       transform="translate(701.02332,131.79654)"
       id="g1150">
      <g
         id="g1148">
        <path
           d="m 12.472656,1.085938 c 5.300782,0 9.457032,-2.472657 11.503906,-6.265626 h 0.0625 l 0.121094,1.261719 c 0.238282,2.773438 2.648438,5.003907 5.964844,5.003907 2.589844,0 5.421875,-1.1445318 6.988281,-3.015626 l -2.351562,-3.855468 c -0.660157,0.964844 -1.625,1.628906 -2.410157,1.628906 -1.023437,0 -1.625,-0.84375 -1.625,-2.109375 V -20.0625 c 0,-7.230469 -5.664062,-11.808594 -14.039062,-11.808594 -8.3125,0 -14.277344,4.699219 -14.820312,10.363282 l 6.445312,1.566406 c 0.242188,-3.375 3.617188,-6.507813 8.4375,-6.507813 4.335938,0 7.289062,2.109375 7.289062,5.363281 0,1.265626 -0.964843,2.109376 -2.410156,2.289063 l -6.808594,0.78125 c -9.578124,1.144531 -13.734374,5.003906 -13.734374,10.0625 0,5.421875 4.699218,9.039063 11.386718,9.039063 z m 2.046875,-5.242188 c -3.855469,0 -6.6875,-1.6875 -6.6875,-4.339844 0,-2.347656 2.046875,-4.398437 8.3125,-5.121094 l 7.773438,-0.902343 v 1.6875 c 0,5.121093 -3.976563,8.675781 -9.398438,8.675781 z m 0,0"
           id="path1146" />
      </g>
    </g>
  </g>
  <g
     fill="#000000"
     fill-opacity="1"
     id="g1160"
     transform="matrix(0.347158,0,0,0.34834149,0.30202937,-0.4409021)">
    <g
       transform="translate(738.13496,131.79654)"
       id="g1158">
      <g
         id="g1156">
        <path
           d="m 17.109375,1.203125 c 4.820313,0 9.398437,-2.710937 10.90625,-7.167969 l -3.3125,-3.554687 c -1.027344,3.3125 -3.4375,5.121093 -6.386719,5.121093 -3.011718,0 -5.121094,-2.289062 -5.121094,-5.664062 l -0.0625,-15.242188 h 13.015626 v -5.359374 H 13.132812 l 0.0625,-10.242188 -6.808593,1.503906 v 8.738282 H 0.121094 v 5.359374 H 6.386719 V -9.15625 c 0,6.265625 4.21875,10.359375 10.722656,10.359375 z m 0,0"
           id="path1154" />
      </g>
    </g>
  </g>
  <g
     fill="#000000"
     fill-opacity="1"
     id="g1168"
     transform="matrix(0.347158,0,0,0.34834149,0.30202937,-0.4409021)">
    <g
       transform="translate(766.57115,131.79654)"
       id="g1166">
      <g
         id="g1164">
        <path
           d="m 6.507812,-35.726562 c 2.53125,0 4.398438,-1.6875 4.398438,-4.277344 0,-2.53125 -1.867188,-4.21875 -4.398438,-4.21875 -2.652343,0 -4.398437,1.6875 -4.398437,4.21875 0,2.589844 1.746094,4.277344 4.398437,4.277344 z M 3.074219,0 H 9.820312 V -30.664062 H 3.074219 Z m 0,0"
           id="path1162" />
      </g>
    </g>
  </g>
  <g
     fill="#000000"
     fill-opacity="1"
     id="g1176"
     transform="matrix(0.347158,0,0,0.34834149,0.30202937,-0.4409021)">
    <g
       transform="translate(779.58432,131.79654)"
       id="g1174">
      <g
         id="g1172">
        <path
           d="M 12.351562,0 H 20.84375 L 32.773438,-30.664062 H 25.785156 L 16.75,-5.722656 H 16.628906 L 7.589844,-30.664062 H 0.480469 Z m 0,0"
           id="path1170" />
      </g>
    </g>
  </g>
  <g
     fill="#000000"
     fill-opacity="1"
     id="g1184"
     transform="matrix(0.347158,0,0,0.34834149,0.30202937,-0.4409021)">
    <g
       transform="translate(812.84021,131.79654)"
       id="g1182">
      <g
         id="g1180">
        <path
           d="m 18.253906,1.203125 c 10.0625,0 16.691406,-6.566406 16.691406,-16.507813 0,-10 -6.628906,-16.566406 -16.691406,-16.566406 -10.058594,0 -16.6875,6.566406 -16.6875,16.566406 0,9.941407 6.628906,16.507813 16.6875,16.507813 z m 0,-5.78125 c -6.082031,0 -9.941406,-4.21875 -9.941406,-10.726563 0,-6.503906 3.859375,-10.660156 9.941406,-10.660156 6.027344,0 9.941406,4.15625 9.941406,10.660156 0,6.507813 -3.914062,10.726563 -9.941406,10.726563 z m 0,0"
           id="path1178" />
      </g>
    </g>
  </g>
  <g
     fill="#000000"
     fill-opacity="1"
     id="g1192"
     transform="matrix(0.347158,0,0,0.34834149,0.30202937,-0.4409021)">
    <g
       transform="translate(849.34938,131.79654)"
       id="g1190">
      <g
         id="g1188">
        <path
           d="m 15.90625,1.144531 c 8.070312,0 13.855469,-4.15625 13.855469,-10.183593 0,-4.816407 -3.191407,-7.46875 -10.601563,-8.914063 l -4.761718,-0.84375 c -3.976563,-0.84375 -5.664063,-1.929687 -5.664063,-3.855469 0.0625,-2.230468 2.59375,-4.21875 5.964844,-4.21875 3.855469,0 6.6875,2.050782 7.050781,5 l 6.023438,-1.144531 C 26.808594,-28.195312 21.6875,-31.75 14.882812,-31.75 c -7.171874,0 -12.171874,3.855469 -12.230468,9.640625 0,4.699219 2.832031,7.289063 9.335937,8.492187 l 4.699219,0.84375 c 4.761719,0.90625 6.871094,2.167969 6.871094,4.277344 0,2.652344 -3.253906,4.519532 -7.414063,4.519532 -4.816406,0 -8.492187,-2.53125 -8.792969,-6.324219 L 1.144531,-9.398438 C 1.625,-2.710938 7.953125,1.144531 15.90625,1.144531 Z m 0,0"
           id="path1186" />
      </g>
    </g>
  </g>
  <g
     fill="#000000"
     fill-opacity="1"
     id="g1200"
     transform="matrix(0.347158,0,0,0.34834149,0.30202937,-0.4409021)">
    <g
       transform="translate(665.34884,713.44035)"
       id="g1198">
      <g
         id="g1196">
        <path
           d="M 11.898438,0 C 11.993952,-11.936292 41.77341,-43.416221 13.486724,-35.449219 -16.932399,-37.887903 26.330076,-24.665627 11.898438,0 Z"
           id="path1194" />
      </g>
    </g>
  </g>
  <g
     fill="#000000"
     fill-opacity="1"
     id="g1208"
     transform="matrix(0.347158,0,0,0.34834149,0.30202937,-0.4409021)">
    <g
       transform="translate(695.34597,713.44035)"
       id="g1206">
      <g
         id="g1204">
        <path
           d="m 14.898438,-26.347656 c -21.2661129,-11.555526 -10.1922791,47.176428 -7,14.451957 -2.5003844,-19.045536 27.855591,3.8941791 7,-14.451957 z"
           id="path1202" />
      </g>
    </g>
  </g>
  <g
     fill="#000000"
     fill-opacity="1"
     id="g1216"
     transform="matrix(0.347158,0,0,0.34834149,0.30202937,-0.4409021)">
    <g
       transform="translate(719.04369,713.44035)"
       id="g1214">
      <g
         id="g1212">
        <path
           d="m 10.347656,0.898438 c 38.16079,8.0064694 -0.06548,-41.359166 -3.449218,-17.445313 43.037323,-10.91221 -32.139899,9.7130943 3.449218,17.445313 z m 1.703125,-4.347657 c -18.7426546,-8.278644 26.116152,-11.953876 0,0 z"
           id="path1210" />
      </g>
    </g>
  </g>
  <g
     fill="#000000"
     fill-opacity="1"
     id="g1224"
     transform="matrix(0.347158,0,0,0.34834149,0.30202937,-0.4409021)">
    <g
       transform="translate(749.84075,713.44035)"
       id="g1222">
      <g
         id="g1220">
        <path
           d="m 17.25,0.898438 c 36.604,-19.040613 -16.42683229,-30.166713 -15,-33.882424 1.4609531,25.7583796 -7.3736071,30.9394201 15,33.882424 z M 15.75,-4 c -32.732113,-23.20887 31.641891,-20.808406 0,0 z"
           id="path1218" />
      </g>
    </g>
  </g>
  <g
     fill="#000000"
     fill-opacity="1"
     id="g1232"
     transform="matrix(0.347158,0,0,0.34834149,0.30202937,-0.4409021)">
    <g
       transform="translate(780.5878,713.44035)"
       id="g1230">
      <g
         id="g1228">
        <path
           d="m 10.347656,0.898438 c 38.16079,8.0064694 -0.06548,-41.359166 -3.449218,-17.445313 43.037323,-10.91221 -32.139899,9.7130943 3.449218,17.445313 z m 1.703125,-4.347657 c -18.7426546,-8.278644 26.116152,-11.953876 0,0 z"
           id="path1226" />
      </g>
    </g>
  </g>
  <g
     fill="#000000"
     fill-opacity="1"
     id="g1240"
     transform="matrix(0.347158,0,0,0.34834149,0.30202937,-0.4409021)">
    <g
       transform="translate(811.38485,713.44035)"
       id="g1238">
      <g
         id="g1236">
        <path
           d="m 5.398438,-29.648438 c 13.163409,-8.506632 -12.5585103,-7.875918 0,0 z M -0.199219,11.5 c 22.2016,-18.8099004 -3.2762127,-58.940435 2.75,-9.1925873 -0.00926,5.0564531 -15.169208,7.3340897 -2.75,9.1925873 z"
           id="path1234" />
      </g>
    </g>
  </g>
  <g
     fill="#000000"
     fill-opacity="1"
     id="g1248"
     transform="matrix(0.347158,0,0,0.34834149,0.30202937,-0.4409021)">
    <g
       transform="translate(822.23381,713.44035)"
       id="g1246">
      <g
         id="g1244">
        <path
           d="m 15.148438,1 c 54.486067,-34.044292 -53.16282,-34.328186 0,0 z m 0,-4.800781 c -34.004481,-23.889424 32.743586,-21.308677 0,0 z"
           id="path1242" />
      </g>
    </g>
  </g>
  <g
     fill="#000000"
     fill-opacity="1"
     id="g1256"
     transform="matrix(0.347158,0,0,0.34834149,0.30202937,-0.4409021)">
    <g
       transform="translate(852.53092,713.44035)"
       id="g1254">
      <g
         id="g1252">
        <path
           d="M 13.199219,0.949219 C 44.611499,-6.3045462 -14.544172,-27.503582 23.046875,-19.097656 -21.78885,-39.864823 41.293711,10.341052 0.949219,-7.800781 l 3.8002925,6.4565429 z"
           id="path1250" />
      </g>
    </g>
  </g>
  <g
     fill="#000000"
     fill-opacity="1"
     id="g1264"
     transform="matrix(0.347158,0,0,0.34834149,0.30202937,-0.4409021)">
    <g
       transform="translate(626.53721,768.21037)"
       id="g1262">
      <g
         id="g1260">
        <path
           d="m 10.347656,0.898438 c 38.16079,8.0064694 -0.06548,-41.359166 -3.449218,-17.445313 43.037323,-10.91221 -32.139899,9.7130943 3.449218,17.445313 z m 1.703125,-4.347657 c -18.7426546,-8.278644 26.116152,-11.953876 0,0 z"
           id="path1258" />
      </g>
    </g>
  </g>
  <g
     fill="#000000"
     fill-opacity="1"
     id="g1272"
     transform="matrix(0.347158,0,0,0.34834149,0.30202937,-0.4409021)">
    <g
       transform="translate(657.33426,768.21037)"
       id="g1270">
      <g
         id="g1268">
        <path
           d="M 14.898438,1 C 52.93447,-12.771309 -19.151532,-4.2940502 18.628418,-20.160156 41.59986,-31.902641 -27.426841,-16.851449 14.898438,1 Z"
           id="path1266" />
      </g>
    </g>
  </g>
  <g
     fill="#000000"
     fill-opacity="1"
     id="g1280"
     transform="matrix(0.347158,0,0,0.34834149,0.30202937,-0.4409021)">
    <g
       transform="translate(686.28148,768.21037)"
       id="g1278">
      <g
         id="g1276">
        <path
           d="m 10.347656,0.898438 c 38.16079,8.0064694 -0.06548,-41.359166 -3.449218,-17.445313 43.037323,-10.91221 -32.139899,9.7130943 3.449218,17.445313 z m 1.703125,-4.347657 c -18.7426546,-8.278644 26.116152,-11.953876 0,0 z"
           id="path1274" />
      </g>
    </g>
  </g>
  <g
     fill="#000000"
     fill-opacity="1"
     id="g1288"
     transform="matrix(0.347158,0,0,0.34834149,0.30202937,-0.4409021)">
    <g
       transform="translate(717.07854,768.21037)"
       id="g1286">
      <g
         id="g1284">
        <path
           d="M 13.5,0.898438 C 32.671714,8.4004505 34.092466,-28.098918 22.847656,-36.949219 36.782726,-8.7332838 -25.74898,-34.485583 13.5,0.898438 Z M 15,-4 c -32.738483,-23.160175 31.627637,-20.858941 0,0 z"
           id="path1282" />
      </g>
    </g>
  </g>
  <g
     fill="#000000"
     fill-opacity="1"
     id="g1296"
     transform="matrix(0.347158,0,0,0.34834149,0.30202937,-0.4409021)">
    <g
       transform="translate(747.82559,768.21037)"
       id="g1294">
      <g
         id="g1292">
        <path
           d="m 15,-29.949219 c 10.362365,-7.12607 2.596944,-15.143998 0,0 z M 15.949219,1 c 27.330525,-10.0137323 -29.31639,-8.1774762 11.5,-14.199219 C 19.875155,-49.215215 -20.378271,-4.3202245 15.949219,1 Z M 7.148438,-14.898438 c 7.848289,-18.590869 26.862696,6.2024675 0,0 z"
           id="path1290" />
      </g>
    </g>
  </g>
  <g
     fill="#000000"
     fill-opacity="1"
     id="g1304"
     transform="matrix(0.347158,0,0,0.34834149,0.30202937,-0.4409021)">
    <g
       transform="translate(777.02279,768.21037)"
       id="g1302">
      <g
         id="g1300">
        <path
           d="M 2.25,0 C 12.809626,-20.999993 14.997237,-20.429971 25.046875,0 25.235185,-51.908663 44.228383,27.39843 42.246094,-15.860932 34.26919,-25.042738 -4.9544037,-35.680466 2.25,-9.5882866 c 0,3.1960955 0,6.3921911 0,9.5882866 z"
           id="path1298" />
      </g>
    </g>
  </g>
  <g
     fill="#000000"
     fill-opacity="1"
     id="g1312"
     transform="matrix(0.347158,0,0,0.34834149,0.30202937,-0.4409021)">
    <g
       transform="translate(821.31854,768.21037)"
       id="g1310">
      <g
         id="g1308">
        <path
           d="m 5.398438,-29.648438 c 13.182566,-8.610959 -12.7031261,-7.783422 0,0 z M 2.550781,0 c 17.394614,-13.080552 -6.4419457,-41.942967 0,-1.6578204 z"
           id="path1306" />
      </g>
    </g>
  </g>
  <g
     fill="#000000"
     fill-opacity="1"
     id="g1320"
     transform="matrix(0.347158,0,0,0.34834149,0.30202937,-0.4409021)">
    <g
       transform="translate(832.1175,768.21037)"
       id="g1318">
      <g
         id="g1316">
        <path
           d="M 14.898438,1 C 52.93447,-12.771309 -19.151532,-4.2940502 18.628418,-20.160156 41.59986,-31.902641 -27.426841,-16.851449 14.898438,1 Z"
           id="path1314" />
      </g>
    </g>
  </g>
  <g
     fill="#000000"
     fill-opacity="1"
     id="g1328"
     transform="matrix(0.347158,0,0,0.34834149,0.30202937,-0.4409021)">
    <g
       transform="translate(861.06473,768.21037)"
       id="g1326">
      <g
         id="g1324">
        <path
           d="m 15.148438,1 c 54.486067,-34.044292 -53.16282,-34.328186 0,0 z m 0,-4.800781 c -34.004481,-23.889424 32.743586,-21.308677 0,0 z"
           id="path1322" />
      </g>
    </g>
  </g>
  <g
     fill="#000000"
     fill-opacity="1"
     id="g1336"
     transform="matrix(0.347158,0,0,0.34834149,0.30202937,-0.4409021)">
    <g
       transform="translate(891.36182,768.21037)"
       id="g1334">
      <g
         id="g1332">
        <path
           d="M 13.199219,0.949219 C 44.611499,-6.3045462 -14.544172,-27.503582 23.046875,-19.097656 -21.78885,-39.864823 41.293711,10.341052 0.949219,-7.800781 l 3.8002925,6.4565429 z"
           id="path1330" />
      </g>
    </g>
  </g>
  <g
     fill="#000000"
     fill-opacity="1"
     id="g1344"
     transform="matrix(0.347158,0,0,0.34834149,0.30202937,-0.4409021)">
    <g
       transform="translate(28.873047,622.919)"
       id="g1342">
      <g
         id="g1340">
        <path
           d="m 20.597656,1.25 c 9.699219,0 16.597656,-5.75 17.847656,-14.800781 l -5.898437,-1.046875 C 31.597656,-8.25 26.949219,-4.148438 20.648438,-4.148438 c -7.800782,0 -12.75,-5.300781 -12.800782,-13.550781 0,-8.300781 4.550782,-13.546875 11.75,-13.546875 5.25,0 9.050782,3.347656 10,8.746094 l 5.800782,-1.449219 c -1.449219,-7.75 -7.652344,-12.75 -15.800782,-12.75 -11.046875,0 -17.949218,7.402344 -17.949218,19 C 1.648438,-6.148438 9,1.25 20.597656,1.25 Z m 0,0"
           id="path1338" />
      </g>
    </g>
  </g>
  <g
     fill="#000000"
     fill-opacity="1"
     id="g1352"
     transform="matrix(0.347158,0,0,0.34834149,0.30202937,-0.4409021)">
    <g
       transform="translate(68.219273,622.919)"
       id="g1350">
      <g
         id="g1348">
        <path
           d="M 15.148438,1 C 23.5,1 28.996094,-4.449219 28.996094,-12.699219 c 0,-8.300781 -5.496094,-13.75 -13.847656,-13.75 -8.347657,0 -13.847657,5.449219 -13.847657,13.75 0,8.25 5.5,13.699219 13.847657,13.699219 z m 0,-4.800781 c -5.050782,0 -8.25,-3.5 -8.25,-8.898438 0,-5.398437 3.199218,-8.847656 8.25,-8.847656 5,0 8.25,3.449219 8.25,8.847656 0,5.398438 -3.25,8.898438 -8.25,8.898438 z m 0,0"
           id="path1346" />
      </g>
    </g>
  </g>
  <g
     fill="#000000"
     fill-opacity="1"
     id="g1360"
     transform="matrix(0.347158,0,0,0.34834149,0.30202937,-0.4409021)">
    <g
       transform="translate(98.516372,622.919)"
       id="g1358">
      <g
         id="g1356">
        <path
           d="m 2.25,0 h 5.648438 v -14.050781 c 0,-4.347657 2.351562,-7.347657 6.402343,-7.347657 3.246094,0 5.148438,2 5.148438,5.351563 V 0 h 5.597656 v -14.050781 c 0,-4.347657 2.402344,-7.347657 6.402344,-7.347657 3.25,0 5.148437,2 5.148437,5.351563 V 0 h 5.648438 v -16.949219 c 0,-5.898437 -3.148438,-9.347656 -8.398438,-9.347656 -3.851562,0 -7.300781,1.699219 -9.398437,5.347656 h -0.05078 c -1.199219,-3.449219 -3.851563,-5.347656 -7.851563,-5.347656 -4.046875,0 -7.347656,1.898437 -8.847656,5.046875 H 7.648438 l -0.75,-4.199219 H 2.25 Z m 0,0"
           id="path1354" />
      </g>
    </g>
  </g>
  <g
     fill="#000000"
     fill-opacity="1"
     id="g1368"
     transform="matrix(0.347158,0,0,0.34834149,0.30202937,-0.4409021)">
    <g
       transform="translate(142.81213,622.919)"
       id="g1366">
      <g
         id="g1364">
        <path
           d="m 10.949219,0.851562 c 4.25,0 7.398437,-1.851562 9.449219,-5.050781 h 0.05078 L 21.148438,0 h 4.898437 V -25.449219 H 20.398438 V -11.25 c 0,4.351562 -3,7.351562 -7.199219,7.351562 -3.351563,0 -5.5,-2.300781 -5.5,-5.949218 V -25.449219 H 2.050781 V -8.5 c 0,5.851562 3.347657,9.351562 8.898438,9.351562 z m 0,0"
           id="path1362" />
      </g>
    </g>
  </g>
  <g
     fill="#000000"
     fill-opacity="1"
     id="g1376"
     transform="matrix(0.347158,0,0,0.34834149,0.30202937,-0.4409021)">
    <g
       transform="translate(171.1594,622.919)"
       id="g1374">
      <g
         id="g1372">
        <path
           d="m 17.347656,-26.296875 c -4.25,0 -7.398437,1.847656 -9.449218,5.046875 H 7.847656 L 7.148438,-25.449219 H 2.25 V 0 h 5.648438 v -14.199219 c 0,-4.347656 3,-7.347656 7.199218,-7.347656 3.351563,0 5.5,2.296875 5.5,5.949219 V 0 H 26.25 v -16.949219 c 0,-5.847656 -3.351562,-9.347656 -8.902344,-9.347656 z m 0,0"
           id="path1370" />
      </g>
    </g>
  </g>
  <g
     fill="#000000"
     fill-opacity="1"
     id="g1384"
     transform="matrix(0.347158,0,0,0.34834149,0.30202937,-0.4409021)">
    <g
       transform="translate(199.45669,622.919)"
       id="g1382">
      <g
         id="g1380">
        <path
           d="m 5.398438,-29.648438 c 2.101562,0 3.652343,-1.398437 3.652343,-3.550781 0,-2.097656 -1.550781,-3.5 -3.652343,-3.5 -2.199219,0 -3.648438,1.402344 -3.648438,3.5 0,2.152344 1.449219,3.550781 3.648438,3.550781 z M 2.550781,0 H 8.148438 V -25.449219 H 2.550781 Z m 0,0"
           id="path1378" />
      </g>
    </g>
  </g>
  <g
     fill="#000000"
     fill-opacity="1"
     id="g1392"
     transform="matrix(0.347158,0,0,0.34834149,0.30202937,-0.4409021)">
    <g
       transform="translate(210.25565,622.919)"
       id="g1390">
      <g
         id="g1388">
        <path
           d="m 14.898438,1 c 6.898437,0 12.300781,-4.351562 13.148437,-10.550781 l -5.347656,-0.847657 C 22.148438,-6.449219 18.949219,-3.75 15,-3.75 c -4.652344,0 -8.050781,-3.597656 -8.050781,-8.949219 0,-5.347656 3.148437,-8.949219 7.449219,-8.949219 3.148437,0 5.898437,2.101563 6.699218,5.601563 l 5.25,-1.300781 c -1.199218,-5.402344 -6,-9.101563 -12.046875,-9.101563 -7.703125,0 -13,5.652344 -13,13.75 C 1.300781,-4.648438 6.847656,1 14.898438,1 Z m 0,0"
           id="path1386" />
      </g>
    </g>
  </g>
  <g
     fill="#000000"
     fill-opacity="1"
     id="g1400"
     transform="matrix(0.347158,0,0,0.34834149,0.30202937,-0.4409021)">
    <g
       transform="translate(239.20288,622.919)"
       id="g1398">
      <g
         id="g1396">
        <path
           d="m 10.347656,0.898438 c 4.402344,0 7.851563,-2.046876 9.550782,-5.199219 h 0.05078 L 20.046875,-3.25 C 20.25,-0.949219 22.25,0.898438 25,0.898438 c 2.148438,0 4.496094,-0.9492192 5.796875,-2.5 l -1.949219,-3.199219 c -0.550781,0.800781 -1.351562,1.351562 -2,1.351562 C 26,-3.449219 25.5,-4.148438 25.5,-5.199219 v -11.449219 c 0,-6 -4.703125,-9.800781 -11.652344,-9.800781 -6.898437,0 -11.847656,3.902344 -12.296875,8.601563 l 5.347657,1.300781 c 0.199218,-2.800781 3,-5.402344 7,-5.402344 3.601562,0 6.050781,1.75 6.050781,4.449219 0,1.050781 -0.800781,1.75 -2,1.902344 l -5.648438,0.648437 C 4.351562,-14 0.898438,-10.800781 0.898438,-6.597656 c 0,4.496094 3.902343,7.496094 9.449218,7.496094 z m 1.703125,-4.347657 C 8.847656,-3.449219 6.5,-4.851562 6.5,-7.050781 c 0,-1.949219 1.699219,-3.648438 6.898438,-4.25 l 6.449218,-0.75 v 1.402343 c 0,4.25 -3.300781,7.199219 -7.796875,7.199219 z m 0,0"
           id="path1394" />
      </g>
    </g>
  </g>
  <g
     fill="#000000"
     fill-opacity="1"
     id="g1408"
     transform="matrix(0.347158,0,0,0.34834149,0.30202937,-0.4409021)">
    <g
       transform="translate(269.99994,622.919)"
       id="g1406">
      <g
         id="g1404">
        <path
           d="m 14.898438,1 c 6.898437,0 12.300781,-4.351562 13.148437,-10.550781 l -5.347656,-0.847657 C 22.148438,-6.449219 18.949219,-3.75 15,-3.75 c -4.652344,0 -8.050781,-3.597656 -8.050781,-8.949219 0,-5.347656 3.148437,-8.949219 7.449219,-8.949219 3.148437,0 5.898437,2.101563 6.699218,5.601563 l 5.25,-1.300781 c -1.199218,-5.402344 -6,-9.101563 -12.046875,-9.101563 -7.703125,0 -13,5.652344 -13,13.75 C 1.300781,-4.648438 6.847656,1 14.898438,1 Z m 0,0"
           id="path1402" />
      </g>
    </g>
  </g>
  <g
     fill="#000000"
     fill-opacity="1"
     id="g1416"
     transform="matrix(0.347158,0,0,0.34834149,0.30202937,-0.4409021)">
    <g
       transform="translate(298.94716,622.919)"
       id="g1414">
      <g
         id="g1412">
        <path
           d="m 5.398438,-29.648438 c 2.101562,0 3.652343,-1.398437 3.652343,-3.550781 0,-2.097656 -1.550781,-3.5 -3.652343,-3.5 -2.199219,0 -3.648438,1.402344 -3.648438,3.5 0,2.152344 1.449219,3.550781 3.648438,3.550781 z M 2.550781,0 H 8.148438 V -25.449219 H 2.550781 Z m 0,0"
           id="path1410" />
      </g>
    </g>
  </g>
  <g
     fill="#000000"
     fill-opacity="1"
     id="g1424"
     transform="matrix(0.347158,0,0,0.34834149,0.30202937,-0.4409021)">
    <g
       transform="translate(309.74613,622.919)"
       id="g1422">
      <g
         id="g1420">
        <path
           d="m 15.449219,-29.949219 5.800781,-7.199219 -1.550781,-1.25 -5.75,7.25 z M 15.148438,1 C 23.5,1 28.996094,-4.449219 28.996094,-12.699219 c 0,-8.300781 -5.496094,-13.75 -13.847656,-13.75 -8.347657,0 -13.847657,5.449219 -13.847657,13.75 0,8.25 5.5,13.699219 13.847657,13.699219 z m 0,-4.800781 c -5.050782,0 -8.25,-3.5 -8.25,-8.898438 0,-5.398437 3.199218,-8.847656 8.25,-8.847656 5,0 8.25,3.449219 8.25,8.847656 0,5.398438 -3.25,8.898438 -8.25,8.898438 z m 0,0"
           id="path1418" />
      </g>
    </g>
  </g>
  <g
     fill="#000000"
     fill-opacity="1"
     id="g1432"
     transform="matrix(0.347158,0,0,0.34834149,0.30202937,-0.4409021)">
    <g
       transform="translate(340.04323,622.919)"
       id="g1430">
      <g
         id="g1428">
        <path
           d="m 17.347656,-26.296875 c -4.25,0 -7.398437,1.847656 -9.449218,5.046875 H 7.847656 L 7.148438,-25.449219 H 2.25 V 0 h 5.648438 v -14.199219 c 0,-4.347656 3,-7.347656 7.199218,-7.347656 3.351563,0 5.5,2.296875 5.5,5.949219 V 0 H 26.25 v -16.949219 c 0,-5.847656 -3.351562,-9.347656 -8.902344,-9.347656 z m 0,0"
           id="path1426" />
      </g>
    </g>
  </g>
  <a
     id="a2790"
     xlink:href="https://jsi2jsi.github.io/SfL/docs/Prbl-Comnc-Vrtl/Prbl-Comnc-Vrtl.htm"
     transform="matrix(0.347158,0,0,0.34834149,0.30202937,-0.4409021)">
    <g
       clip-path="url(#086a5c8e91)"
       id="g1436">
      <path
         fill="#ff89f0"
         d="M 490.16406,536.75781 H 359.17969 c -7.08985,0 -12.83594,5.73047 -12.83594,12.80078 v 9.11719 c 0,7.07031 5.74609,12.80078 12.83594,12.80078 h 11.42968 c 1.02344,0 2.04688,0.23438 2.89844,0.79297 4.24219,2.79297 3.16016,10.91406 2.36719,18.30469 -0.1875,1.7539 2.21875,2.4414 2.98437,0.84765 2.94532,-6.16015 6.64454,-13.52343 8.98047,-16.79687 1.42188,-1.99609 3.75,-3.14844 6.20313,-3.14844 h 96.12109 c 7.08985,0 12.83594,-5.73047 12.83594,-12.80078 v -9.11719 c 0,-7.07031 -5.74609,-12.80078 -12.83594,-12.80078 z m 0,0"
         fill-opacity="1"
         fill-rule="nonzero"
         id="path1434" />
    </g>
  </a>
  <g
     clip-path="url(#7da01e43d5)"
     id="g1440"
     transform="matrix(0.347158,0,0,0.34834149,0.30202937,-0.4409021)">
    <path
       fill="#ff89f0"
       d="m 370.12109,563.77344 c -0.16797,-0.23828 -0.49609,-0.29297 -0.73437,-0.12891 -3.58594,2.51953 -8.52344,1.74219 -11.16797,-1.69922 0.41406,-0.35937 0.72266,-0.82422 0.87891,-1.36719 0.0781,-0.27734 -0.082,-0.57031 -0.36329,-0.64843 -0.27734,-0.0781 -0.57031,0.082 -0.64843,0.36328 -0.26563,0.9375 -1.27344,1.51562 -2.44922,1.40234 -0.28516,-0.0234 -0.54688,0.1875 -0.57031,0.47266 -0.0274,0.28906 0.18359,0.54687 0.47265,0.57031 0.12891,0.0156 0.25781,0.0195 0.38672,0.0195 0.49609,0 0.96875,-0.0937 1.39453,-0.26562 1.79688,2.39843 4.56641,3.68359 7.38281,3.68359 1.83204,0 3.67969,-0.54297 5.28907,-1.67187 0.23828,-0.16797 0.29297,-0.4961 0.1289,-0.73047 z m 0,0"
       fill-opacity="1"
       fill-rule="nonzero"
       id="path1438" />
  </g>
  <g
     clip-path="url(#a2e442b57e)"
     id="g1444"
     transform="matrix(0.347158,0,0,0.34834149,0.30202937,-0.4409021)">
    <path
       fill="#ff89f0"
       d="m 373.33984,557.37891 c -0.45312,0 -0.82031,-0.36719 -0.82031,-0.82032 0,-1.14453 -0.93359,-2.07422 -2.08203,-2.07422 -1.14844,0 -2.07813,0.92969 -2.07813,2.07422 0,0.45313 -0.37109,0.82032 -0.82421,0.82032 -0.45313,0 -0.82032,-0.36719 -0.82032,-0.82032 0,-2.04687 1.67188,-3.71093 3.72266,-3.71093 2.05078,0 3.72266,1.66406 3.72266,3.71093 0,0.45313 -0.36719,0.82032 -0.82032,0.82032 z m 0,0"
       fill-opacity="1"
       fill-rule="nonzero"
       id="path1442" />
  </g>
  <g
     fill="#000000"
     fill-opacity="1"
     id="g1452"
     transform="matrix(0.347158,0,0,0.34834149,0.30202937,-0.4409021)">
    <g
       transform="translate(1076.4837,96.371881)"
       id="g1450">
      <g
         id="g1448">
        <path
           d="M 2.898438,0 H 9.097656 V -35.449219 H 2.898438 Z m 0,0"
           id="path1446" />
      </g>
    </g>
  </g>
  <g
     fill="#000000"
     fill-opacity="1"
     id="g1460"
     transform="matrix(0.347158,0,0,0.34834149,0.30202937,-0.4409021)">
    <g
       transform="translate(1088.4826,96.371881)"
       id="g1458">
      <g
         id="g1456">
        <path
           d="m 17.347656,-26.296875 c -4.25,0 -7.398437,1.847656 -9.449218,5.046875 H 7.847656 L 7.148438,-25.449219 H 2.25 V 0 h 5.648438 v -14.199219 c 0,-4.347656 3,-7.347656 7.199218,-7.347656 3.351563,0 5.5,2.296875 5.5,5.949219 V 0 H 26.25 v -16.949219 c 0,-5.847656 -3.351562,-9.347656 -8.902344,-9.347656 z m 0,0"
           id="path1454" />
      </g>
    </g>
  </g>
  <g
     fill="#000000"
     fill-opacity="1"
     id="g1468"
     transform="matrix(0.347158,0,0,0.34834149,0.30202937,-0.4409021)">
    <g
       transform="translate(1116.7799,96.371881)"
       id="g1466">
      <g
         id="g1464">
        <path
           d="m 5.300781,0 h 5.597657 V -21 H 21 v -4.449219 H 10.898438 v -2.949219 c 0,-2.847656 1.699218,-4.699218 4.199218,-4.699218 2.199219,0 4.199219,1.601562 4.949219,3.800781 l 2.953125,-3 c -1.351562,-3.199219 -4.652344,-5.449219 -8.75,-5.449219 -5.449219,0 -9,3.449219 -9,8.699219 v 3.597656 H 0.101562 V -21 H 5.25 Z m 0,0"
           id="path1462" />
      </g>
    </g>
  </g>
  <g
     fill="#000000"
     fill-opacity="1"
     id="g1476"
     transform="matrix(0.347158,0,0,0.34834149,0.30202937,-0.4409021)">
    <g
       transform="translate(1139.7777,96.371881)"
       id="g1474">
      <g
         id="g1472">
        <path
           d="M 15.148438,1 C 23.5,1 28.996094,-4.449219 28.996094,-12.699219 c 0,-8.300781 -5.496094,-13.75 -13.847656,-13.75 -8.347657,0 -13.847657,5.449219 -13.847657,13.75 0,8.25 5.5,13.699219 13.847657,13.699219 z m 0,-4.800781 c -5.050782,0 -8.25,-3.5 -8.25,-8.898438 0,-5.398437 3.199218,-8.847656 8.25,-8.847656 5,0 8.25,3.449219 8.25,8.847656 0,5.398438 -3.25,8.898438 -8.25,8.898438 z m 0,0"
           id="path1470" />
      </g>
    </g>
  </g>
  <g
     fill="#000000"
     fill-opacity="1"
     id="g1484"
     transform="matrix(0.347158,0,0,0.34834149,0.30202937,-0.4409021)">
    <g
       transform="translate(1170.0748,96.371881)"
       id="g1482">
      <g
         id="g1480">
        <path
           d="m 14.898438,-26.347656 c -3.199219,0 -5.847657,1.898437 -7.25,5 H 7.597656 l -0.75,-4.101563 H 2.25 V 0 h 5.648438 v -13.898438 c 0,-4.898437 2.152343,-7.851562 5.652343,-7.851562 2.496094,0 4.148438,1.851562 4.449219,5.203125 l 4.796875,-1.402344 C 22.25,-23.296875 19.25,-26.347656 14.898438,-26.347656 Z m 0,0"
           id="path1478" />
      </g>
    </g>
  </g>
  <g
     fill="#000000"
     fill-opacity="1"
     id="g1492"
     transform="matrix(0.347158,0,0,0.34834149,0.30202937,-0.4409021)">
    <g
       transform="translate(1193.7725,96.371881)"
       id="g1490">
      <g
         id="g1488">
        <path
           d="m 2.25,0 h 5.648438 v -14.050781 c 0,-4.347657 2.351562,-7.347657 6.402343,-7.347657 3.246094,0 5.148438,2 5.148438,5.351563 V 0 h 5.597656 v -14.050781 c 0,-4.347657 2.402344,-7.347657 6.402344,-7.347657 3.25,0 5.148437,2 5.148437,5.351563 V 0 h 5.648438 v -16.949219 c 0,-5.898437 -3.148438,-9.347656 -8.398438,-9.347656 -3.851562,0 -7.300781,1.699219 -9.398437,5.347656 h -0.05078 c -1.199219,-3.449219 -3.851563,-5.347656 -7.851563,-5.347656 -4.046875,0 -7.347656,1.898437 -8.847656,5.046875 H 7.648438 l -0.75,-4.199219 H 2.25 Z m 0,0"
           id="path1486" />
      </g>
    </g>
  </g>
  <g
     fill="#000000"
     fill-opacity="1"
     id="g1500"
     transform="matrix(0.347158,0,0,0.34834149,0.30202937,-0.4409021)">
    <g
       transform="translate(1238.0683,96.371881)"
       id="g1498">
      <g
         id="g1496">
        <path
           d="m 10.347656,0.898438 c 4.402344,0 7.851563,-2.046876 9.550782,-5.199219 h 0.05078 L 20.046875,-3.25 C 20.25,-0.949219 22.25,0.898438 25,0.898438 c 2.148438,0 4.496094,-0.9492192 5.796875,-2.5 l -1.949219,-3.199219 c -0.550781,0.800781 -1.351562,1.351562 -2,1.351562 C 26,-3.449219 25.5,-4.148438 25.5,-5.199219 v -11.449219 c 0,-6 -4.703125,-9.800781 -11.652344,-9.800781 -6.898437,0 -11.847656,3.902344 -12.296875,8.601563 l 5.347657,1.300781 c 0.199218,-2.800781 3,-5.402344 7,-5.402344 3.601562,0 6.050781,1.75 6.050781,4.449219 0,1.050781 -0.800781,1.75 -2,1.902344 l -5.648438,0.648437 C 4.351562,-14 0.898438,-10.800781 0.898438,-6.597656 c 0,4.496094 3.902343,7.496094 9.449218,7.496094 z m 1.703125,-4.347657 C 8.847656,-3.449219 6.5,-4.851562 6.5,-7.050781 c 0,-1.949219 1.699219,-3.648438 6.898438,-4.25 l 6.449218,-0.75 v 1.402343 c 0,4.25 -3.300781,7.199219 -7.796875,7.199219 z m 0,0"
           id="path1494" />
      </g>
    </g>
  </g>
  <g
     fill="#000000"
     fill-opacity="1"
     id="g1508"
     transform="matrix(0.347158,0,0,0.34834149,0.30202937,-0.4409021)">
    <g
       transform="translate(1268.8653,96.371881)"
       id="g1506">
      <g
         id="g1504">
        <path
           d="m 14.898438,1 c 6.898437,0 12.300781,-4.351562 13.148437,-10.550781 l -5.347656,-0.847657 C 22.148438,-6.449219 18.949219,-3.75 15,-3.75 c -4.652344,0 -8.050781,-3.597656 -8.050781,-8.949219 0,-5.347656 3.148437,-8.949219 7.449219,-8.949219 3.148437,0 5.898437,2.101563 6.699218,5.601563 l 5.25,-1.300781 c -1.199218,-5.402344 -6,-9.101563 -12.046875,-9.101563 -7.703125,0 -13,5.652344 -13,13.75 C 1.300781,-4.648438 6.847656,1 14.898438,1 Z m 0,0"
           id="path1502" />
      </g>
    </g>
  </g>
  <g
     fill="#000000"
     fill-opacity="1"
     id="g1516"
     transform="matrix(0.347158,0,0,0.34834149,0.30202937,-0.4409021)">
    <g
       transform="translate(1297.8125,96.371881)"
       id="g1514">
      <g
         id="g1512">
        <path
           d="m 5.398438,-29.648438 c 2.101562,0 3.652343,-1.398437 3.652343,-3.550781 0,-2.097656 -1.550781,-3.5 -3.652343,-3.5 -2.199219,0 -3.648438,1.402344 -3.648438,3.5 0,2.152344 1.449219,3.550781 3.648438,3.550781 z M 2.550781,0 H 8.148438 V -25.449219 H 2.550781 Z m 0,0"
           id="path1510" />
      </g>
    </g>
  </g>
  <g
     fill="#000000"
     fill-opacity="1"
     id="g1524"
     transform="matrix(0.347158,0,0,0.34834149,0.30202937,-0.4409021)">
    <g
       transform="translate(1308.6115,96.371881)"
       id="g1522">
      <g
         id="g1520">
        <path
           d="m 15.449219,-29.949219 5.800781,-7.199219 -1.550781,-1.25 -5.75,7.25 z M 15.148438,1 C 23.5,1 28.996094,-4.449219 28.996094,-12.699219 c 0,-8.300781 -5.496094,-13.75 -13.847656,-13.75 -8.347657,0 -13.847657,5.449219 -13.847657,13.75 0,8.25 5.5,13.699219 13.847657,13.699219 z m 0,-4.800781 c -5.050782,0 -8.25,-3.5 -8.25,-8.898438 0,-5.398437 3.199218,-8.847656 8.25,-8.847656 5,0 8.25,3.449219 8.25,8.847656 0,5.398438 -3.25,8.898438 -8.25,8.898438 z m 0,0"
           id="path1518" />
      </g>
    </g>
  </g>
  <g
     fill="#000000"
     fill-opacity="1"
     id="g1532"
     transform="matrix(0.347158,0,0,0.34834149,0.30202937,-0.4409021)">
    <g
       transform="translate(1338.9086,96.371881)"
       id="g1530">
      <g
         id="g1528">
        <path
           d="m 17.347656,-26.296875 c -4.25,0 -7.398437,1.847656 -9.449218,5.046875 H 7.847656 L 7.148438,-25.449219 H 2.25 V 0 h 5.648438 v -14.199219 c 0,-4.347656 3,-7.347656 7.199218,-7.347656 3.351563,0 5.5,2.296875 5.5,5.949219 V 0 H 26.25 v -16.949219 c 0,-5.847656 -3.351562,-9.347656 -8.902344,-9.347656 z m 0,0"
           id="path1526" />
      </g>
    </g>
  </g>
  <a
     id="a2781"
     xlink:href="https://jsi2jsi.github.io/SfL/docs/Imprt_Recpt_Infm/1Import_Menc_Infrm.html"
     xlink:show=""
     transform="matrix(0.347158,0,0,0.34834149,0.30202937,-0.4409021)">
    <g
       clip-path="url(#06a2bbb4a6)"
       id="g1536">
      <path
         fill="#9f54ff"
         d="m 1290.8984,100.17969 h -177.1523 c -9.5898,0 -17.3594,7.79297 -17.3594,17.41015 v 12.39844 c 0,9.61328 7.7696,17.40625 17.3594,17.40625 h 15.4609 c 1.3789,0 2.7696,0.32031 3.918,1.08203 5.7344,3.79688 4.2734,14.83985 3.2031,24.89453 -0.2539,2.38672 3,3.31641 4.0313,1.15235 3.9883,-8.38282 8.9922,-18.39063 12.1484,-22.84766 1.9219,-2.71484 5.0703,-4.28125 8.3906,-4.28125 h 130 c 9.5899,0 17.3594,-7.79297 17.3594,-17.40625 v -12.39844 c 0,-9.61718 -7.7695,-17.41015 -17.3594,-17.41015 z m 0,0"
         fill-opacity="1"
         fill-rule="nonzero"
         id="path1534" />
    </g>
  </a>
  <path
     fill="#9f54ff"
     d="m 392.08476,47.253309 c -0.0787,-0.111577 -0.2319,-0.138794 -0.34445,-0.05988 -1.68427,1.193341 -4.00183,0.825951 -5.244,-0.804177 0.19528,-0.171452 0.34038,-0.390524 0.41224,-0.649059 0.0379,-0.13199 -0.0379,-0.269421 -0.1695,-0.306161 -0.1302,-0.03809 -0.26714,0.0381 -0.30378,0.170089 -0.12608,0.444953 -0.59936,0.718453 -1.1513,0.666749 -0.13425,-0.01227 -0.25492,0.08709 -0.2685,0.223154 -0.0122,0.136073 0.0867,0.257173 0.22239,0.270781 0.061,0.0055 0.12207,0.0081 0.18174,0.0081 0.23458,0 0.45565,-0.0449 0.65499,-0.125183 0.84348,1.136193 2.14533,1.744428 3.46613,1.744428 0.86112,0 1.72901,-0.257173 2.48436,-0.791934 0.11119,-0.08028 0.13831,-0.234039 0.0597,-0.34698 z m 0,0"
     fill-opacity="1"
     fill-rule="nonzero"
     id="path1538"
     style="stroke-width:0.347748" />
  <path
     fill="#9f54ff"
     d="m 393.59677,44.224372 c -0.21287,0 -0.38645,-0.17417 -0.38645,-0.387801 0,-0.541563 -0.43806,-0.982435 -0.97638,-0.982435 -0.53837,0 -0.97639,0.440872 -0.97639,0.982435 0,0.213631 -0.17222,0.387801 -0.38514,0.387801 -0.21291,0 -0.38513,-0.17417 -0.38513,-0.387801 0,-0.970187 0.78381,-1.758038 1.74666,-1.758038 0.96415,0 1.74796,0.787851 1.74796,1.758038 0,0.213631 -0.17358,0.387801 -0.38513,0.387801 z m 0,0"
     fill-opacity="1"
     fill-rule="nonzero"
     id="path1540"
     style="stroke-width:0.347748" />
  <path
     fill="#9f54ff"
     d="m 387.00077,44.224372 c -0.21287,0 -0.38511,-0.17417 -0.38511,-0.387801 0,-0.541563 -0.43803,-0.982435 -0.97772,-0.982435 -0.53838,0 -0.97639,0.440872 -0.97639,0.982435 0,0.213631 -0.17223,0.387801 -0.38514,0.387801 -0.2129,0 -0.38514,-0.17417 -0.38514,-0.387801 0,-0.970187 0.78381,-1.758038 1.74667,-1.758038 0.96415,0 1.74797,0.787851 1.74797,1.758038 0,0.213631 -0.17222,0.387801 -0.38514,0.387801 z m 0,0"
     fill-opacity="1"
     fill-rule="nonzero"
     id="path1542"
     style="stroke-width:0.347748" />
</svg>
